<svg version="1.1" xmlns="http://www.w3.org/2000/svg" viewBox="0 0 20 20">
<path fill="#fff" d="M19.756,6.878c-0.049-0.049-0.585-0.244-1.414-0.488c-0.049,0-0.098-0.049-0.098-0.098
	C16.829,3.171,13.658,0.976,10,0.976c-3.659,0-6.78,2.195-8.195,5.317c0,0.049-0.049,0.049-0.097,0.098
	c-0.83,0.293-1.366,0.488-1.415,0.488L0,7.024v5.902l0.292,0.098c0.049,0,0.537,0.195,1.317,0.438c0.049,0,0.098,0.049,0.098,0.098
	c1.366,3.22,4.585,5.464,8.292,5.464c3.708,0,6.879-2.244,8.244-5.415c0-0.049,0.049-0.049,0.098-0.098
	c0.828-0.292,1.316-0.487,1.365-0.487L20,12.878V6.976L19.756,6.878z M10,1.951c2.829,0,5.316,1.463,6.732,3.659
	c0.097,0.146-0.049,0.292-0.195,0.244c-1.854-0.488-4.293-0.976-6.634-0.976c-2.292,0-4.634,0.488-6.439,0.976
	C3.317,5.902,3.22,5.756,3.269,5.61C4.732,3.415,7.22,1.951,10,1.951z M10,18.049c-2.878,0-5.415-1.512-6.829-3.854
	c-0.098-0.146,0.049-0.293,0.195-0.244c1.902,0.488,4.342,1.025,6.634,1.025c2.439,0,4.829-0.488,6.635-0.977
	c0.146-0.049,0.244,0.098,0.194,0.244C15.368,16.613,12.783,18.053,10,18.049z M19.074,12.146c0,0.049-0.05,0.146-0.098,0.146
	c-1.22,0.439-5.074,1.756-8.976,1.756c-3.463,0-7.61-1.316-8.927-1.756c-0.049,0-0.098-0.098-0.098-0.146V7.805
	c0-0.049,0.049-0.146,0.098-0.146C2.341,7.22,6.244,5.902,9.951,5.902c3.658,0,7.756,1.317,9.024,1.756
	c0.049,0,0.098,0.097,0.098,0.146L19.074,12.146L19.074,12.146z M9.122,11.707l3.122-1.805c0.146-0.098,0.146-0.341,0-0.39
	L9.122,7.659c-0.146-0.098-0.342,0-0.342,0.195v3.609C8.78,11.707,8.976,11.805,9.122,11.707z"/>
</svg>