<svg version="1.1" xmlns="http://www.w3.org/2000/svg" viewBox="0 0 20 20">
<path fill="#fff" d="M18,4.5H2c-0.55,0-1,0.45-1,1v10.031c0,0.55,0.45,1,1,1h5c0.55,0,1.129-0.432,1.286-0.958
	c0,0,0.609-1.042,1.714-1.042c1.105,0,1.714,1.042,1.714,1.042C11.871,16.1,12.45,16.531,13,16.531h5c0.55,0,1-0.45,1-1V5.5
	C19,4.95,18.55,4.5,18,4.5z M5.5,12.5c-1.657,0-3-1.343-3-3s1.343-3,3-3s3,1.343,3,3S7.157,12.5,5.5,12.5z M14.5,12.5
	c-1.657,0-3-1.343-3-3s1.343-3,3-3s3,1.343,3,3S16.157,12.5,14.5,12.5z"/>
</svg>
