<svg version="1.1" xmlns="http://www.w3.org/2000/svg" viewBox="0 0 20 20">
<path fill="none" stroke="#FFFFFF" stroke-width="2" d="M18,4.5H2c-0.55,0-1,0.45-1,1v10.031
	c0,0.55,0.45,1,1,1h5c0.55,0,1.129-0.432,1.286-0.958c0,0,0.609-1.042,1.714-1.042c1.105,0,1.714,1.042,1.714,1.042
	C11.871,16.1,12.45,16.531,13,16.531h5c0.55,0,1-0.45,1-1V5.5C19,4.95,18.55,4.5,18,4.5z"/>
<path fill="#fff" d="M14.5,6.5c1.656,0,3,1.343,3,3c0,1.656-1.344,3-3,3s-3-1.344-3-3C11.5,7.843,12.844,6.5,14.5,6.5z M5.5,6.5
	c1.657,0,3,1.343,3,3c0,1.656-1.343,3-3,3s-3-1.344-3-3C2.5,7.843,3.843,6.5,5.5,6.5z"/>
</svg>