<svg xmlns="http://www.w3.org/2000/svg" viewBox="0 0 20 20">
<path fill="#fff" d="M4.802,6.882H0.65v6.236h4.152l5.194,5.194V1.688L4.802,6.882z M16.604,16.608l-1.463-1.465
	c2.84-2.824,2.854-7.417,0.029-10.257c-0.011-0.011-0.021-0.021-0.029-0.03l1.463-1.465c3.65,3.63,3.662,9.53,0.037,13.179
	C16.627,16.584,16.618,16.593,16.604,16.608z M13.676,13.674L12.2,12.201c1.215-1.214,1.215-3.186,0-4.403l1.476-1.475
	c2.029,2.009,2.05,5.281,0.038,7.313C13.698,13.652,13.689,13.665,13.676,13.674z"/>
</svg>
