<?xml version="1.0" encoding="UTF-8"?> <!-- Generator: Adobe Illustrator 25.4.1, SVG Export Plug-In . SVG Version: 6.00 Build 0) --> <svg xmlns="http://www.w3.org/2000/svg" xmlns:xlink="http://www.w3.org/1999/xlink" version="1.1" id="Capa_1" x="0px" y="0px" viewBox="0 0 800 800" style="enable-background:new 0 0 800 800;" xml:space="preserve"> <style type="text/css"> .st0{fill:#FFFFFF;} </style> <g> <path class="st0" d="M406.4,147.5c45.8,0,88.1,11.2,126.9,33.7s69.4,53.1,91.9,91.9c22.5,38.8,33.7,81.1,33.7,126.9 c0,34.4-6.7,67.1-20.2,98.1s-31.4,57.8-53.9,80.3c-22.5,22.5-49.3,40.4-80.6,53.9s-63.9,20.2-97.8,20.2 c-45.8,0-88.1-11.2-126.9-33.7c-38.8-22.5-69.4-53.1-91.9-91.9S154,445.8,154,400s11.2-88.1,33.7-126.9s53.1-69.4,91.9-91.9 S360.6,147.5,406.4,147.5z M406.4,630.6c41.9,0,80.5-10.2,116-30.7c35.5-20.5,63.4-48.5,83.9-83.9c20.5-35.5,30.7-71.5,30.7-108.1 s-6.1-69.1-18.2-97.5c-12.1-28.4-28.5-53-49.2-73.7s-45.3-37.1-73.7-49.2c-28.4-12.1-60.9-18.2-97.5-18.2s-72.6,10.2-108.1,30.7 S227,248.6,206.5,284s-30.7,74.1-30.7,116s10.2,80.5,30.7,116s48.5,63.4,83.9,83.9C325.9,620.4,364.6,630.6,406.4,630.6z M406.4,248c41.9,0,77.7,14.9,107.4,44.6c29.7,29.7,44.6,65.5,44.6,107.4s-14.9,77.7-44.6,107.4c-29.7,29.7-65.5,44.6-107.4,44.6 s-77.7-14.9-107.4-44.6s-44.6-65.5-44.6-107.4s14.9-77.7,44.6-107.4S364.6,248,406.4,248z M406.4,530.2c35.7,0,66.3-12.8,91.9-38.3 c25.6-25.6,38.3-56.2,38.3-91.9c0-23.4-5.8-45-17.5-65.1c-11.7-20-27.5-35.9-47.6-47.6c-20-11.7-41.7-17.5-65.1-17.5 c-36.1,0-66.9,12.8-92.2,38.3s-38,56.2-38,91.9c0,23.4,5.8,45,17.5,65.1c11.7,20,27.5,35.9,47.6,47.6 C361.4,524.4,383.1,530.2,406.4,530.2z M780.5,193.8v428.9c0,6.6-2.4,12.3-7.3,17.2c-4.8,4.8-10.8,7.5-17.8,7.9h-17.2 c-6.6,0-12.2-2.4-16.9-7.3s-6.9-9-6.9-12.6v-5.9l8.6-163.2c0.4-7-0.7-12.4-3.3-16.2c-2.6-3.7-5-7.5-6.9-11.2s-4.8-10.7-8.6-20.8 c-3.7-10.1-6.8-20.8-9.3-32.1c-2.4-11.2-3.5-24.8-3.3-40.6s2.3-31.5,6.3-46.9c9.3-36.6,30.6-71.6,64.1-105.1 c2.2-2.2,4.4-3.3,6.6-3.3C776.5,182.6,780.5,186.3,780.5,193.8z M735.6,623.4c0,1.8,0.9,2.6,2.6,2.6h17.2c2.2,0,3.3-1.3,3.3-4 V221.6c-16.3,19.8-28.1,40.4-35.4,61.8c-7.3,21.4-11,39.7-11.2,54.9c-0.2,15.2,1.9,30.3,6.3,45.3c4.8,18.9,10.6,33.5,17.2,43.6 c6.6,10.1,9.5,21.1,8.6,33l-8.6,162.6V623.4z M114.3,190.8c2.2-2,4.5-3,6.9-3s4.5,0.4,6.3,1.3c3.5,2.2,5.3,5.3,5.3,9.3v111.7 c0,9.7-4.2,17-12.6,21.8c-4,2.2-8.2,3.3-12.6,3.3H45.6c-7,0-13-2.4-17.8-7.3c-4.8-4.8-7.3-10.8-7.3-17.8V198.4 c0-3.1,1.1-5.6,3.3-7.6c2.2-2,4.7-3,7.6-3s5.4,1,7.6,3c2.2,2,3.3,4.5,3.3,7.6v111.7c0,2.2,1.1,3.3,3.3,3.3h20.5V193.8 c0-7,3.5-10.6,10.6-10.6c2.6,0,5.1,1,7.3,3c2.2,2,3.3,4.5,3.3,7.6v119.6h20.5c2.2,0,3.3-1.1,3.3-3.3V198.4 C111,195.4,112.1,192.8,114.3,190.8z M86.6,372.2c2.2-2.2,4.5-3.3,6.9-3.3s4.5,0.4,6.3,1.3c3.5,2.2,5.3,5.5,5.3,9.9V632 c0,4-1.3,6.7-4,8.3c-2.6,1.5-4.8,2.3-6.6,2.3H58.8c-4,0-6.7-1.3-8.3-4c-1.5-2.6-2.3-4.8-2.3-6.6V380.2c0-3.1,1-5.7,3-7.9 s4.5-3.3,7.6-3.3c3.1,0,5.7,1.1,7.9,3.3c2.2,2.2,3.3,4.8,3.3,7.9v240.6h13.2V380.2C83.3,377.1,84.4,374.4,86.6,372.2z"></path> </g> </svg> 