<?xml version="1.0" encoding="UTF-8"?> <!-- Generator: Adobe Illustrator 25.4.1, SVG Export Plug-In . SVG Version: 6.00 Build 0) --> <svg xmlns="http://www.w3.org/2000/svg" xmlns:xlink="http://www.w3.org/1999/xlink" version="1.1" id="Capa_1" x="0px" y="0px" viewBox="0 0 800 800" style="enable-background:new 0 0 800 800;" xml:space="preserve"> <style type="text/css"> .st0{fill:#FFFFFF;} </style> <g> <path class="st0" d="M483.7,399.9c-57.4,0-114.7,0-172.1,0c-57.4,0-114.7,0-172.1,0c-14.4,0-18.2,3.8-18.2,17.8 c0,64.1,0,128.1,0,192.2c0,14.1,3.9,18.1,18.1,18.1c114.7,0,229.5,0,344.2,0c13.9,0,17.6-3.8,17.6-17.6c0-64.3,0-128.6,0-192.9 C501.2,403.7,497.5,399.9,483.7,399.9z M475.4,602c-109.4,0-218.7,0-328.5,0c0-58.9,0-117.4,0-176.5c109.9,0,219,0,328.5,0 C475.4,484.4,475.4,542.9,475.4,602z"></path> <path class="st0" d="M235.5,562.4c0.5,0.6,1.1,1.1,1.6,1.7c4.1,4.3,10.9,4.4,15.2,0.2c32.3-32.4,64.8-64.8,97.4-97.4 c4.2-4.2,4.1-11-0.1-15.1c-0.6-0.5-1.1-1.1-1.7-1.6c-4.2-4-10.8-4-14.9,0.1c-32.7,32.7-65.3,65.3-97.3,97.3 C231.7,551.7,231.6,558.2,235.5,562.4z"></path> <path class="st0" d="M324.1,564.1c0.1,0.1,0.1,0.1,0.2,0.2c4.2,4,10.8,4,14.9-0.1c11.8-11.8,23.4-23.4,34.8-34.9 c4.1-4.1,4.1-10.7,0.1-14.8c-0.1-0.1-0.1-0.1-0.2-0.2c-4.1-4.2-10.9-4.3-15.1-0.1c-11.6,11.6-23.2,23.2-34.8,34.8 C319.8,553.2,319.8,560,324.1,564.1z"></path> <path class="st0" d="M210.7,513.6c4.1,4.2,10.9,4.3,15.1,0.2c11.8-11.6,23.5-23.2,35.2-34.7c4.2-4.1,4.2-10.8,0.1-14.9l-1.3-1.3 c-4.1-4.2-10.9-4.2-15.1-0.1c-11.9,11.9-23.5,23.5-34.9,35c-4.1,4.1-4.1,10.7-0.1,14.8L210.7,513.6z"></path> <path class="st0" d="M729.4,678.8c0-3.3,0-5.9,0-8.5c0-106.4,0-212.7-0.1-319.1c0-5,1.3-7.7,5.8-10.4c19.6-11.3,29.7-28.5,32-51.2 c2.8-26.8-5.2-51.8-11.5-77.2c-8.1-32.6-16.4-65.1-24.4-97.8c-1.2-4.7-1.7-9.7-1.8-14.6c0-1,0-2.6,0-4.5 c-0.2-27.9-22.8-50.4-50.7-50.4H122c-28,0-50.7,22.7-50.7,50.7v0.4c-2.2,22.7-9.3,47.4-13,61.3c-8.6,32-17.7,63.9-23.7,96.4 c-3,16.3-1.4,34,1.4,50.5c2.8,16.1,14,28.2,28.6,36.1c5,2.7,6.2,5.7,6.1,10.9c-0.2,49.2-0.1,98.5-0.1,147.7c0,56.7,0,113.3,0,170 c0,2.9,0,5.8,0,9.6c-2.6,0-7.2,0-12.5,0c-21,0-38.1,17-38.1,38v0c0,21,17,38,38,38c106.1,0,408-0.1,566.8-0.1 c27.8,0,80.9,0,117.2,0.1c21,0,38-17,38-38v0c0-21-17.1-38.1-38.1-38C736.6,678.8,732.1,678.8,729.4,678.8z M727.6,315.6 c-12.6,10-29.2,11.1-42.9,3c-14.7-8.7-21.1-24.6-17.7-44.7c24.5,0,49,0,73.6,0C745.1,288.8,739.8,305.9,727.6,315.6z M678.8,419.1 c0-15.7-3.4-19.2-19.1-19.2c-38.6,0-77.2,0-115.8,0c-13.2,0-17.3,4-17.3,17.3c0,83.9,0,167.7,0,251.6c0,2.9,0,5.9,0,9.4 c-143.6,0-286.6,0-430.2,0c0-109.3,0-218.6,0-328.6c20-1.2,37-9,50.2-25.6c13.3,16.2,30.1,25.1,50.7,25.1 c20.5,0,37.2-8.7,50.5-24.9c29.4,34.6,75.6,31.7,101.6,0c13.2,15.9,30,24.9,50.7,24.9c20.5,0,37.1-8.8,50.6-25 c13.4,16.1,30.2,25.1,50.9,25c20.5-0.1,37.2-8.9,50.4-25.1c13.3,16.2,30.1,25.2,50.8,25.1c20.5-0.1,37.2-8.8,50.4-25.1 c13.1,16,29.7,24.5,50.4,25.4c0,109.7,0,219,0,328.8c-8.1,0-16.1,0-24.9,0c0-3.2,0-6.1,0-9C678.8,585.9,678.8,502.5,678.8,419.1z M653,425.5c0,84,0,167.8,0,252.2c-33.2,0-66.4,0-100.4,0c0-83.8,0-167.7,0-252.2C586.3,425.5,619.4,425.5,653,425.5z M234.7,273.8 c2.2,17.6-0.7,33-16,43.4c-13.3,9-27.5,9.4-41.1,1c-16.5-10.1-19.8-25.9-17.5-44.4C185.2,273.8,209.8,273.8,234.7,273.8z M161.9,247.5c1.9-11.7,3.6-23.1,5.5-34.5c4.8-28.5,9.7-56.9,14.2-85.5c0.8-4.9,2.4-6.6,7.4-6.5c19,0.3,38,0.1,57.8,0.1 c-3.5,42.5-7,84.2-10.5,126.4C211.6,247.5,187.3,247.5,161.9,247.5z M335.7,273.8c2.4,18.7-0.8,34.7-17.9,44.7 c-13.6,8-27.4,7.5-40.5-1.3c-15.4-10.4-18.2-25.8-16.2-43.4C286.1,273.8,310.7,273.8,335.7,273.8z M261.8,247.5 c3.5-42,7-83.8,10.5-125.9c21.6,0,42.5,0,63.8,0c0,42.1,0,83.7,0,125.9C311.6,247.5,287.3,247.5,261.8,247.5z M438.2,240.1 c0,6-1.3,8.2-7.7,8c-20.8-0.4-41.6-0.3-62.3-0.1c-4.9,0.1-6.4-1.5-6.4-6.4c0.2-38.3,0.1-76.7,0.1-115c0-1.7,0.4-3.3,0.7-5.3 c25,0,49.6,0,75,0c0.2,2.6,0.4,5,0.4,7.3C438.1,165.9,438,203,438.2,240.1z M423.4,315.7c-13,9.9-27.3,11.3-41.6,3.4 c-17.7-9.7-21.3-25.9-18.7-45.3c24.7,0,49,0,73.8,0C439.1,290.1,437.5,305,423.4,315.7z M464.3,273.8c25,0,49.6,0,74.5,0 c2.1,17.6-0.8,33-16.1,43.4c-13,8.8-26.9,9.3-40.5,1.4C465.1,308.5,461.8,292.6,464.3,273.8z M463.9,247.6c0-42,0-83.7,0-125.9 c20.9,0,41.7,0,63.7,0c3.5,41.7,7,83.6,10.5,125.9C513.1,247.6,488.7,247.6,463.9,247.6z M637.4,247.6c-24.6,0-48.9,0-73.8,0 c-3.5-42.1-7-83.9-10.6-126.4c20.7,0,40.7-0.1,60.7,0.2c1.5,0,3.9,2.3,4.2,3.8c6.7,39.7,13.3,79.4,19.8,119.2 C637.8,245.2,637.5,246.2,637.4,247.6z M639.9,273.7c2.3,17.2-0.3,32.4-15.2,43c-13.1,9.3-27.2,10.1-41.1,2 c-17-9.9-20.6-25.9-18.4-44.9C590.3,273.7,615,273.7,639.9,273.7z M708,125.7c9.8,40,19.9,80,29.8,120c0.1,0.4-0.2,0.9-0.5,2.3 c-8.4,0-16.9,0-25.5,0c-14.1,0-28.2-0.1-42.3,0.1c-4,0.1-5.8-1.2-6.4-5.1c-6.5-39.5-13.1-78.9-19.6-118.4c-0.1-0.7,0.1-1.5,0.2-2.7 c1.6-0.2,3.2-0.7,4.8-0.7c17.6-0.1,35.1,0,52.7-0.1C704.7,121,706.9,121.5,708,125.7z M96.3,95.4c0-13.5,10.9-24.4,24.4-24.4h558.6 c13.5,0,24.4,10.9,24.4,24.4v0L96.3,95.4L96.3,95.4z M67.8,222.6c7.8-31.4,15.8-62.7,23.4-94.2c1.3-5.4,3.3-7.6,9.3-7.5 c18.5,0.4,37,0.2,56.4,0.2c-2.3,14.4-4.5,28-6.7,41.6c-4.3,26.1-8.9,52.1-13,78.2c-0.9,5.4-2.7,7.3-8.4,7.3 c-22-0.3-44-0.1-67.1-0.1C63.9,239.1,65.8,230.8,67.8,222.6z M58.7,273.9c25.3,0,49.9,0,74.7,0c2.3,18-0.9,33.6-16.8,43.8 c-13.5,8.7-27.7,8.7-41.1,0C59.5,307.4,56.5,291.8,58.7,273.9z M754.5,716.7c0,6.7-5.4,12.1-12.1,12.1H57.8 c-6.7,0-12.1-5.4-12.1-12.1v0c0-6.7,5.4-12.1,12.1-12.1h684.7C749.1,704.7,754.5,710.1,754.5,716.7L754.5,716.7z"></path> </g> </svg> 