<?xml version="1.0" encoding="UTF-8"?> <!-- Generator: Adobe Illustrator 25.4.1, SVG Export Plug-In . SVG Version: 6.00 Build 0) --> <svg xmlns="http://www.w3.org/2000/svg" xmlns:xlink="http://www.w3.org/1999/xlink" version="1.1" id="Capa_1" x="0px" y="0px" viewBox="0 0 800 800" style="enable-background:new 0 0 800 800;" xml:space="preserve"> <style type="text/css"> .st0{fill:#FFFFFF;} </style> <g> <path class="st0" d="M767.4,733.3h-36V376.7h36c4.4,0,8.4-2.3,10.7-6c2.3-3.7,2.5-8.3,0.6-12.3l-86.4-173.8c-2.1-4.3-6.5-7-11.3-7 H446.9l-20.1-20.1c-4.1-4.1-9-7-14.1-8.8v-22.9l77.7-22.2c5.4-1.5,9.2-6.5,9.2-12.1c0-5.6-3.7-10.6-9.2-12.1l-77.7-22.2v-3.3 c0-7-5.6-12.6-12.6-12.6s-12.6,5.6-12.6,12.6v94.7c-5.2,1.8-10,4.7-14.1,8.8l-20.1,20.1H119.1c-4.8,0-9.2,2.7-11.3,7L21.3,358.5 c-1.9,3.9-1.7,8.5,0.6,12.3c2.3,3.7,6.4,6,10.7,6h36v356.6h-36c-7,0-12.6,5.6-12.6,12.6s5.6,12.6,12.6,12.6h734.8 c7,0,12.6-5.6,12.6-12.6S774.4,733.3,767.4,733.3z M706.2,733.3H577.4V415.2l6.6,6.6c7.1,7.1,16.6,11.1,26.7,11.1 s19.6-3.9,26.7-11.1c7.1-7.1,11.1-16.6,11.1-26.7c0-6.5-1.8-12.7-4.9-18.3h62.5V733.3z M460,733.3H340v-160H460V733.3z M472.6,548.1H327.4c-7,0-12.6,5.6-12.6,12.6v172.6h-66.9V390L400,237.8L552.2,390v343.4h-66.9V560.7 C485.2,553.8,479.6,548.1,472.6,548.1z M673.1,202.9L747,351.5H620.7L472.1,202.9H673.1z M440.9,91.6l-28.3,8.1V83.5L440.9,91.6z M391.1,175.4c4.9-4.9,12.9-4.9,17.8,0l210.7,210.7c2.4,2.4,3.7,5.5,3.7,8.9c0,3.4-1.3,6.5-3.7,8.9c-4.8,4.8-13.1,4.8-17.8,0 L408.9,211c-2.5-2.5-5.7-3.7-8.9-3.7s-6.5,1.2-8.9,3.7L198.2,403.9c-4.9,4.9-12.9,4.9-17.8,0c-2.4-2.4-3.7-5.5-3.7-8.9 c0-3.4,1.3-6.5,3.7-8.9L391.1,175.4z M126.9,202.9h201L179.3,351.5H53L126.9,202.9z M93.8,376.7h62.5c-3.1,5.5-4.9,11.7-4.9,18.3 c0,10.1,3.9,19.6,11.1,26.7c14.7,14.7,38.7,14.7,53.5,0l6.6-6.6v318.2H93.8V376.7z"></path> <path class="st0" d="M400,427.8c27.8,0,50.4-22.6,50.4-50.4s-22.6-50.4-50.4-50.4s-50.4,22.6-50.4,50.4S372.2,427.8,400,427.8z M400,352.1c13.9,0,25.2,11.3,25.2,25.2c0,13.9-11.3,25.2-25.2,25.2s-25.2-11.3-25.2-25.2C374.8,363.4,386.1,352.1,400,352.1z"></path> <path class="st0" d="M520.7,515.1v-49.7c0-7-5.6-12.6-12.6-12.6H291.9c-7,0-12.6,5.6-12.6,12.6v49.7c0,7,5.6,12.6,12.6,12.6h216.1 C515,527.7,520.7,522.1,520.7,515.1z M495.5,502.5H304.5v-24.4h190.9V502.5z"></path> <path class="st0" d="M183,452.8h-49.7c-7,0-12.6,5.6-12.6,12.6v49.7c0,7,5.6,12.6,12.6,12.6H183c7,0,12.6-5.6,12.6-12.6v-49.7 C195.7,458.5,190,452.8,183,452.8z M170.4,502.5H146v-24.4h24.4V502.5z"></path> <path class="st0" d="M183,548.1h-49.7c-7,0-12.6,5.6-12.6,12.6v49.7c0,7,5.6,12.6,12.6,12.6H183c7,0,12.6-5.6,12.6-12.6v-49.7 C195.7,553.8,190,548.1,183,548.1z M170.4,597.8H146v-24.4h24.4V597.8z"></path> <path class="st0" d="M604.3,465.4v49.7c0,7,5.6,12.6,12.6,12.6h49.7c7,0,12.6-5.6,12.6-12.6v-49.7c0-7-5.6-12.6-12.6-12.6H617 C610,452.8,604.3,458.5,604.3,465.4z M629.6,478.1H654v24.4h-24.4V478.1z"></path> <path class="st0" d="M666.6,548.1H617c-7,0-12.6,5.6-12.6,12.6v49.7c0,7,5.6,12.6,12.6,12.6h49.7c7,0,12.6-5.6,12.6-12.6v-49.7 C679.2,553.8,673.6,548.1,666.6,548.1z M654,597.8h-24.4v-24.4H654V597.8z"></path> </g> </svg> 