<?xml version="1.0" encoding="UTF-8"?> <!-- Generator: Adobe Illustrator 25.4.1, SVG Export Plug-In . SVG Version: 6.00 Build 0) --> <svg xmlns="http://www.w3.org/2000/svg" xmlns:xlink="http://www.w3.org/1999/xlink" version="1.1" id="Capa_1" x="0px" y="0px" viewBox="0 0 800 800" style="enable-background:new 0 0 800 800;" xml:space="preserve"> <style type="text/css"> .st0{fill:#FFFFFF;} </style> <g> <g> <path class="st0" d="M780,181.5c0-22.6-18.4-41-41-41.1l-95.5-0.5V85.7c0-22.7-18.4-41.1-41.1-41.1l-101.2-0.1 C493.2,29.9,477.7,20,460,20H340c-17.7,0-33.1,9.8-41.1,24.2l-101.2-0.1c0,0-0.1,0-0.1,0c-11,0-21.3,4.3-29,12 c-7.8,7.8-12.1,18.1-12.1,29.1V140L61,140.4c-22.6,0.1-41,18.5-41,41.1v111.2c0,6.1,5,11.1,11.1,11.1s11.1-5,11.1-11.1v-34.6 h136.7v397.7c0,6.1,5,11.1,11.1,11.1c6.1,0,11.1-5,11.1-11.1V162.2h91.7v24.9c0,26,21.1,47.1,47.1,47.1h120 c26,0,47.1-21.1,47.1-47.1v-24.9h91.7v595.5H481.1V624.9c0-6.1-5-11.1-11.1-11.1H330c-6.1,0-11.1,5-11.1,11.1v132.8H201.2v-49.9 c0-6.1-5-11.1-11.1-11.1s-11.1,5-11.1,11.1v49.9H42.3v-413c0-6.1-5-11.1-11.1-11.1s-11.1,5-11.1,11.1v424.1 c0,6.1,5,11.1,11.1,11.1h737.7c6.1,0,11.1-5,11.1-11.1V351c0-6.1-5-11.1-11.1-11.1s-11.1,5-11.1,11.1v406.8H621.1V258.2h136.7V299 c0,6.1,5,11.1,11.1,11.1s11.1-5,11.1-11.1V181.5z M602.5,66.9c10.4,0,18.8,8.5,18.8,18.9V92H507.1V67.1c0-0.1,0-0.3,0-0.4 L602.5,66.9z M184.3,71.8c3.6-3.6,8.3-5.5,13.3-5.5h0l95.3,0.1c0,0.2,0,0.4,0,0.7V92H178.7v-6.8C178.7,80.1,180.7,75.4,184.3,71.8 z M42.3,235.9v-25.7h136.7v25.7H42.3z M178.9,187.9H42.3v-6.4c0-10.4,8.4-18.8,18.8-18.9l117.9-0.5V187.9z M178.7,140v-25.7h114.2 V140H178.7z M484.8,187.1c0,13.7-11.2,24.9-24.9,24.9H340c-13.7,0-24.9-11.2-24.9-24.9v-120c0-13.7,11.2-24.9,24.9-24.9h120 c13.7,0,24.9,11.2,24.9,24.9V187.1z M507.1,114.2h114.2V140H507.1L507.1,114.2z M739,162.7c10.4,0,18.8,8.5,18.8,18.9v6.4H621.1 v-25.7L739,162.7z M341.2,636.1h47.7v121.7h-47.7V636.1z M411.1,757.7V636.1h47.7v121.7H411.1z M621.1,235.9v-25.7h136.7v25.7 H621.1z"></path> <path class="st0" d="M86.6,405.1h48c6.1,0,11.1-5,11.1-11.1v-96c0-6.1-5-11.1-11.1-11.1h-48c-6.1,0-11.1,5-11.1,11.1v96 C75.5,400.2,80.5,405.1,86.6,405.1z M97.7,309.2h25.7v73.7H97.7L97.7,309.2z"></path> <path class="st0" d="M75.5,538c0,6.1,5,11.1,11.1,11.1h48c6.1,0,11.1-5,11.1-11.1v-96c0-6.1-5-11.1-11.1-11.1h-48 c-6.1,0-11.1,5-11.1,11.1V538z M97.7,453.1h25.7v73.7H97.7L97.7,453.1z"></path> <path class="st0" d="M75.5,681.9c0,6.1,5,11.1,11.1,11.1h48c6.1,0,11.1-5,11.1-11.1v-96c0-6.1-5-11.1-11.1-11.1h-48 c-6.1,0-11.1,5-11.1,11.1V681.9z M97.7,597.1h25.7v73.7H97.7L97.7,597.1z"></path> <path class="st0" d="M238.1,405.1h48c6.1,0,11.1-5,11.1-11.1v-96c0-6.1-5-11.1-11.1-11.1h-48c-6.1,0-11.1,5-11.1,11.1v96 C226.9,400.2,231.9,405.1,238.1,405.1z M249.2,309.2h25.7v73.7h-25.7V309.2z"></path> <path class="st0" d="M330,405.1h48c6.1,0,11.1-5,11.1-11.1v-96c0-6.1-5-11.1-11.1-11.1h-48c-6.1,0-11.1,5-11.1,11.1v96 C318.9,400.2,323.9,405.1,330,405.1z M341.2,309.2h25.7v73.7h-25.7V309.2z"></path> <path class="st0" d="M422,405.1h48c6.1,0,11.1-5,11.1-11.1v-96c0-6.1-5-11.1-11.1-11.1h-48c-6.1,0-11.1,5-11.1,11.1v96 C410.9,400.2,415.8,405.1,422,405.1z M433.1,309.2h25.7v73.7h-25.7V309.2z"></path> <path class="st0" d="M514,405.1h48c6.1,0,11.1-5,11.1-11.1v-96c0-6.1-5-11.1-11.1-11.1h-48c-6.1,0-11.1,5-11.1,11.1v96 C502.8,400.2,507.8,405.1,514,405.1z M525.1,309.2h25.7v73.7h-25.7V309.2z"></path> <path class="st0" d="M724.5,298c0-6.1-5-11.1-11.1-11.1h-48c-6.1,0-11.1,5-11.1,11.1v96c0,6.1,5,11.1,11.1,11.1h48 c6.1,0,11.1-5,11.1-11.1V298z M702.3,382.9h-25.7v-73.7h25.7V382.9z"></path> <path class="st0" d="M724.5,442c0-6.1-5-11.1-11.1-11.1h-48c-6.1,0-11.1,5-11.1,11.1v96c0,6.1,5,11.1,11.1,11.1h48 c6.1,0,11.1-5,11.1-11.1V442z M702.3,526.8h-25.7v-73.7h25.7V526.8z"></path> <path class="st0" d="M713.4,574.8h-48c-6.1,0-11.1,5-11.1,11.1v96c0,6.1,5,11.1,11.1,11.1h48c6.1,0,11.1-5,11.1-11.1v-96 C724.5,579.8,719.5,574.8,713.4,574.8z M702.3,670.8h-25.7v-73.7h25.7V670.8z"></path> <path class="st0" d="M226.9,538c0,6.1,5,11.1,11.1,11.1h48c6.1,0,11.1-5,11.1-11.1v-96c0-6.1-5-11.1-11.1-11.1h-48 c-6.1,0-11.1,5-11.1,11.1V538z M249.2,453.1h25.7v73.7h-25.7V453.1z"></path> <path class="st0" d="M318.9,538c0,6.1,5,11.1,11.1,11.1h48c6.1,0,11.1-5,11.1-11.1v-96c0-6.1-5-11.1-11.1-11.1h-48 c-6.1,0-11.1,5-11.1,11.1V538z M341.2,453.1h25.7v73.7h-25.7V453.1z"></path> <path class="st0" d="M410.9,538c0,6.1,5,11.1,11.1,11.1h48c6.1,0,11.1-5,11.1-11.1v-96c0-6.1-5-11.1-11.1-11.1h-48 c-6.1,0-11.1,5-11.1,11.1V538z M433.1,453.1h25.7v73.7h-25.7V453.1z"></path> <path class="st0" d="M502.8,538c0,6.1,5,11.1,11.1,11.1h48c6.1,0,11.1-5,11.1-11.1v-96c0-6.1-5-11.1-11.1-11.1h-48 c-6.1,0-11.1,5-11.1,11.1V538z M525.1,453.1h25.7v73.7h-25.7V453.1z"></path> <path class="st0" d="M433.2,68c-6.1,0-11.1,5-11.1,11.1v35.2h-44.1V79.1c0-6.1-5-11.1-11.1-11.1c-6.1,0-11.1,5-11.1,11.1v96 c0,6.1,5,11.1,11.1,11.1c6.1,0,11.1-5,11.1-11.1v-38.5h44.1v38.5c0,6.1,5,11.1,11.1,11.1s11.1-5,11.1-11.1v-96 C444.3,73,439.4,68,433.2,68z"></path> </g> </g> </svg> 