<?xml version="1.0" encoding="UTF-8"?> <!-- Generator: Adobe Illustrator 25.4.1, SVG Export Plug-In . SVG Version: 6.00 Build 0) --> <svg xmlns="http://www.w3.org/2000/svg" xmlns:xlink="http://www.w3.org/1999/xlink" version="1.1" id="Capa_1" x="0px" y="0px" viewBox="0 0 800 800" style="enable-background:new 0 0 800 800;" xml:space="preserve"> <path d="M143.3,531c-2.7,44.1,8.6,89.1,33.5,125.6c2.7,4,5.6,7.9,8.5,11.7c30.2,38.7,70.6,67.2,121.2,85.3c5.5,2.2,8.2,5.6,8.2,10.3 s-1.4,8.4-4.1,11.1c-2.7,2.7-5.4,4.1-7.8,4.1c-2.5,0-4.3-0.3-5.4-0.8c-56.1-19.2-100.8-50.7-134.4-94.4 c-35-45.6-50.9-103.4-45.5-160.6c4-42.8,19.4-84.3,42.5-120.6c1.6-2.6,3.4-5.2,5.8-7c3.5-2.6,8.3-3.1,12.4-1.5 c4,1.6,7.1,5.5,7.8,9.7c1,6.3-2.6,12.3-5.9,17.7c-13.1,21.3-23.8,44.7-30.3,68.9C146.3,503.8,144.1,517.4,143.3,531z M232.3,348.9 c-1.6,1.6-3.4,3.6-5.4,5.8c-1.9,2.2-4.7,3.3-8.2,3.3s-6.7-1.4-9.5-4.1s-4.1-5.8-4.1-9.1s0.8-5.9,2.5-7.8s3.3-4,4.9-6.2 s4.4-6.2,8.2-12c3.8-5.8,7.4-11.7,10.7-17.7s6.6-13.3,9.9-21.8s5.5-17.2,6.6-26c3.8-19.8,1.6-39.6-6.6-59.3l-0.1-1.1 c-1.6-12.5,10.3-22.5,22.4-18.7l0,0c24.7,14.3,42.9,39.6,54.4,75.8c4.4,14.3,7.4,29.7,9.1,46.2c36.8-91.2,11-172.8-77.5-244.8 l-3.3-3.3l0,0c-6.3-11.7,1-26.2,14.2-27.9l0.6-0.1C298,31,337.3,49.1,379,74.4c3.8,2.7,5.8,6.3,5.8,10.7c0,4.4-1.2,8-3.7,10.7 c-2.5,2.7-5.2,4.1-8.2,4.1s-9.9-3.3-20.6-9.9c-10.7-6.6-26.5-14.6-47.4-23.9c38.5,41.2,60,87.5,64.7,138.9S359,307.7,323.8,358.8 l-13.1,19.5c-4.1,6.1-13.7,2.7-13-4.7l2.3-23.9c4.9-54.4-3-96.7-23.9-126.9C279.8,265.6,265.3,307.7,232.3,348.9z M530.7,275.5 c-24.2-55-63.5-103.3-117.9-145.1c-3.3-2.7-4.9-6.2-4.9-10.3s1.4-7.4,4.1-9.9c2.7-2.5,5.8-3.7,9.1-3.7c3.8,0,12.9,5.8,27.2,17.3 c48.4,41.2,84.1,88.2,107.2,141c0.5,1.6,0.8,3.8,0.8,6.6s-1.2,5.4-3.7,7.8c-2.5,2.5-6.2,3.7-11.1,3.7 C536.5,283,532.9,280.5,530.7,275.5z M545.5,315.1c0-7.2,5.8-13.1,13-13.2c7.3-0.1,11.7,3.2,13.4,9.9 c13.7,52.2,14.8,107.4,3.3,165.7c17-24.7,26.1-69,27.2-132.7l1-2.1c5.2-10.5,19.1-13.2,27.8-5.3l0,0c13.2,18.7,25.1,45.2,35.9,79.5 c10.7,34.3,16.1,64.4,16.1,90.3c0,3.8-1.4,7-4.1,9.5c-2.7,2.5-5.9,3.7-9.5,3.7c-3.6,0-6.7-1.2-9.5-3.7s-4.1-5.6-4.1-9.5 c0-36.1-9-74.7-26.9-115.9c-0.5-1.2-2.3-0.9-2.4,0.4c-5.9,64.8-23.1,105.7-51.5,122.9c-6,3.8-12.4,6.3-19,7.4l-4.4,0.7 c-7.6,1.2-13.8-5.8-11.8-13.2l1.4-4.8c18.1-67,19.5-129.1,4.1-186.3V315.1z M666.7,542.6c7.1,1.6,10.7,5.8,10.7,12.4 c0,1.1-0.3,2.2-0.8,3.3c-15.9,65.4-48.1,120.6-96.4,165.7c-26.9,25.3-57.2,43.7-90.7,55.2c-1.1,0.5-3,0.8-5.8,0.8s-5.4-1.4-7.8-4.1 c-2.5-2.7-3.7-6.6-3.7-11.5c0-4.9,3-8.5,9.1-10.7c23.1-8.2,44.5-20.1,64.3-35.4c19.8-15.4,35.4-30.8,47-46.2 c11.5-15.4,22-32.1,31.3-50.3c12.6-25.3,21.7-48.6,27.2-70.1c1.6-6.6,6-9.9,13.2-9.9C665.3,541.8,666.2,542.1,666.7,542.6z M474.2,522.4c9.6,22.3,15.7,41.2,18.1,56.9c2.5,15.7,4,26.9,4.5,33.8s-0.8,18.8-4.1,35.9c-6.6,35.2-24.7,59.9-54.4,74.2 c-1.6,0.5-3.8,0.8-6.6,0.8c-2.7,0-5.5-1.2-8.2-3.7c-2.7-2.5-4.1-6-4.1-10.7s2.5-8.1,7.4-10.3c22-10.4,35.2-29.4,39.6-56.9 c3.3-17,3.8-31.3,1.6-42.9c-8.3-56.9-30.7-102.4-67.3-136.5c-2.4-2.2-6.3-0.4-6,2.9C399,519.1,379,566.3,333,594.3 c-5.5,3.4-11.3,6.5-16.2,10.8c-6.7,5.9-9.9,13.9-12.2,22.3c-5.2,18.5-1.2,38.6,10.4,53.8c6.7,8.8,15.9,15.2,26,19.4 c3.5,1.4,7.1,2.7,10.8,3.6c6.6,1.6,9.9,5.2,9.9,10.7c0,10.4-4.4,15.7-13.2,15.7c-1.1,0-2.2-0.3-3.3-0.8 c-40.1-10.4-63.2-36-69.2-76.7c-1.6-14.8,1-30.5,7.8-47s19.6-28.9,38.3-37.1c3.8-1.1,8.8-4.7,14.8-10.7 c30.8-29.7,38.7-72.3,23.9-127.8l-0.1-0.3c-3.1-11.6,9.3-21.3,19.9-15.4c19.2,11,37.2,26.1,54,45.3 C451.4,479.4,464.6,500.2,474.2,522.4z"></path> </svg> 