<?xml version="1.0" encoding="UTF-8"?> <!-- Generator: Adobe Illustrator 25.4.1, SVG Export Plug-In . SVG Version: 6.00 Build 0) --> <svg xmlns="http://www.w3.org/2000/svg" xmlns:xlink="http://www.w3.org/1999/xlink" version="1.1" id="Capa_1" x="0px" y="0px" viewBox="0 0 1197 1008" style="enable-background:new 0 0 1197 1008;" xml:space="preserve"> <style type="text/css"> .st0{fill:#FFFFFF;} </style> <path class="st0" d="M1191,452c4,3.3,6,7.5,6,12.5s-1.5,9-4.5,12s-6.5,4.5-10.5,4.5s-7.7-1-11-3l-58-43v460c0,28.7-12.3,50-37,64 c-11.3,6.7-23.7,10-37,10H158c-28,0-49-12.3-63-37c-6.7-11.3-10-23.7-10-37V435l-59,43c-2.7,2.7-6,4-10,4s-7.7-1.7-11-5 s-5-7.5-5-12.5s2.3-9.2,7-12.5L543,56c15.3-11.3,33.8-17,55.5-17S639,44.7,655,56L1191,452z M1080,427c0-4.7,1.7-8.7,5-12L635,82 c-10-7.3-22.2-11-36.5-11S572,74.7,562,82L112,415c3.3,3.3,5,7.3,5,12v468c0,11.3,4,21,12,29s17.7,12,29,12h395V347h91v589h395 c11.3,0,21-4,29-12s12-17.7,12-29V427z"></path> </svg> 