<?xml version="1.0" encoding="UTF-8"?> <!-- Generator: Adobe Illustrator 25.4.1, SVG Export Plug-In . SVG Version: 6.00 Build 0) --> <svg xmlns="http://www.w3.org/2000/svg" xmlns:xlink="http://www.w3.org/1999/xlink" version="1.1" id="Capa_1" x="0px" y="0px" viewBox="0 0 800 800" style="enable-background:new 0 0 800 800;" xml:space="preserve"> <style type="text/css"> .st0{fill:#FFFFFF;} </style> <g> <path class="st0" d="M135.2,715.3c0-5.2,0-9.2,0-13.1c0-207.3,0-414.6,0-622c0-19.1,2.4-21.6,21.3-21.6c42.8,0,85.6,0,128.4,0 c3.3,0,6.7,0,11.3,0c0-8.1-0.2-15.4,0-22.8c0.3-11.9,6.2-17,17.8-15.7C412,31.3,509.9,42.3,607.9,53.3c14.5,1.6,28.9,3.6,43.4,5.2 c8.9,1,13.4,5.6,13.5,14.6c0,3.1,0,6.2,0,9.3c0,206.7,0,413.4,0,620.1c0,4,0,7.9,0,12.8c4.4,0,7.7,0,11.1,0c29.2,0,58.3-0.1,87.5,0 c9.9,0,16,5.1,16.1,12.9c0.1,7.9-6,13.1-15.8,13.1c-19.5,0.1-39.1,0.7-58.6-0.1c-47.7-2.1-94.6,5.1-141.7,10.3 c-63.2,7-126.3,14.3-189.4,21.4c-19.7,2.2-39.4,4.4-59.1,6.7c-12.2,1.4-18-3.5-18.4-15.9c-0.2-6.5-0.1-13-0.2-19.6 c0-0.6-0.4-1.1-1-2.9c-3.2,0-6.8,0-10.4,0c-81,0-161.9,0-242.9,0c-2.5,0-5,0-7.4,0c-8.1-0.3-12.8-4.7-13.6-12.5 c-0.7-7.2,5.3-13.3,13.5-13.4c17.1-0.3,34.1-0.1,51.2-0.1C101.5,715.3,117.7,715.3,135.2,715.3z M638,716.8 c0-211.7,0-422.5,0-633.6C532.7,71.3,428.1,59.4,322.8,47.5c0,235.2,0,469.6,0,705C428,740.6,532.6,728.8,638,716.8z M295.5,714.8 c0-190.5,0-380.1,0-569.9c-25.1,0-49.4,0-74.1,0c0,190.2,0,379.8,0,569.9C246.2,714.8,270.6,714.8,295.5,714.8z M162,85.3 c0,210.3,0,419.9,0,629.5c11.1,0,21.5,0,32.8,0c0-4.5,0-8.5,0-12.5c0-186.5,0-372.9,0-559.4c0-3.1-0.1-6.2,0-9.3 c0.3-10.8,4.6-15.1,15.5-15.2c25.1-0.1,50.2,0,75.4,0c3.3,0,6.6,0,10.1,0c0-11.7,0-22.1,0-33.1C251.1,85.3,206.9,85.3,162,85.3z"></path> <path class="st0" d="M340.1,398.7c0.5-21.1,18.2-38,39.3-37.6c21.4,0.4,38.3,18.4,37.7,40.2c-0.6,21.1-18.3,38.2-39.3,37.6 C356.3,438.4,339.6,420.5,340.1,398.7z M378.5,387.3c-6.9,0.1-12.2,5.5-12.3,12.5c-0.1,7.2,5.9,13.2,12.9,12.9 c6.8-0.3,12.1-6.1,11.9-13C390.8,392.9,385.2,387.2,378.5,387.3z"></path> </g> </svg> 