<?xml version="1.0" encoding="UTF-8"?> <!-- Generator: Adobe Illustrator 25.4.1, SVG Export Plug-In . SVG Version: 6.00 Build 0) --> <svg xmlns="http://www.w3.org/2000/svg" xmlns:xlink="http://www.w3.org/1999/xlink" version="1.1" id="Capa_1" x="0px" y="0px" viewBox="0 0 800 800" style="enable-background:new 0 0 800 800;" xml:space="preserve"> <style type="text/css"> .st0{fill:#FFFFFF;} </style> <path class="st0" d="M295.1,263.6h1.9l0.9-1.9L491,102.3c16.8-14.3,32.5-18,47.1-11.2c14.6,6.8,21.9,21.5,21.9,43.8v529.8 c0,22.4-7.2,37-21.5,43.8c-4.4,2.5-10.6,3.7-18.7,3.7c-8.1,0-17.7-5-28.9-14.9L297.9,537.8c-3.1-3.1-4.7-6.7-4.7-10.7 s1.4-7.5,4.2-10.3s6.1-4.2,9.8-4.2s6.8,0.9,9.3,2.8l192.1,159.5c8.1,6.8,13.8,9.5,17.3,7.9c3.4-1.6,5.1-7.6,5.1-18.2V134.9 c0-10.6-1.7-16.6-5.1-18.2c-3.4-1.6-9.2,1.1-17.3,7.9L316.6,284.1c-1.9,1.9-4.4,2.8-7.5,2.8v160.4c0,3.7-1.4,7-4.2,9.8 c-2.8,2.8-6.1,4.2-9.8,4.2c-3.7,0-7.2-1.4-10.3-4.2s-4.7-6.1-4.7-9.8V278.5C280.2,268.6,285.2,263.6,295.1,263.6z M602.3,319.6 c3.4-1.9,9.2-1.4,17.3,1.4c8.1,2.8,17.4,9.2,28,19.1c22.4,21.1,33.6,45.4,33.6,72.8c0,18.7-5.9,36.8-17.7,54.6s-26.1,30-42.9,36.8 c-6.2,2.5-11.2,1.9-14.9-1.9c-3.7-3.7-5.6-8.1-5.6-13.1c0-5,4.5-9.3,13.5-13.1s17.7-12,26.1-24.7s12.6-25.6,12.6-38.7 c0-13.7-4.7-27-14-40.1c-9.3-13.1-20.8-21.8-34.5-26.1c-3.7-1.2-6.4-3.7-7.9-7.5s-1.7-7.5-0.5-11.2 C596.6,324.2,598.9,321.4,602.3,319.6z M689.5,247.8c28.6,18,50.8,41.7,66.7,70.9s23.8,60.6,23.8,94.2v0.9c0,29.2-8.9,60-26.6,92.3 c-17.7,32.3-39,56.6-63.9,72.8c-1.9,1.2-4.5,1.9-7.9,1.9c-3.4,0-6.7-1.4-9.8-4.2c-3.1-2.8-4.7-6.4-4.7-10.7s2.2-8.1,6.5-11.2 c21.8-13.7,40.1-34.4,55-62c14.9-27.7,22.4-54.3,22.4-79.7c0-34.8-12.7-69.3-38.2-103.5c-11.8-16.2-24.6-28.6-38.2-37.3 c-4.4-3.1-6.5-6.8-6.5-11.2c0-4.4,1.4-7.9,4.2-10.7s5.9-4.2,9.3-4.2C685,245.9,687.7,246.5,689.5,247.8z M216.8,262.7 c6.8-6.8,13.4-6.8,19.6,0c3.1,3.1,4.7,6.5,4.7,10.3v253.7c0,3.7-1.4,7.2-4.2,10.3c-2.8,3.1-6.2,4.7-10.3,4.7c-4,0-7.3-1.6-9.8-4.7 c-3.1,2.5-6.5,3.7-10.3,3.7H75c-15.5,0-27-3.7-34.5-11.2c-13.7-13.7-20.5-28-20.5-42.9V313.1c0-14.9,5.3-27.7,15.9-38.2 C46.4,264.2,59.5,259,75,259h131.5C210.3,259,213.7,260.2,216.8,262.7z M75,512.7h131.5c1.9,0,3.7,0.3,5.6,0.9V286 c-1.9,1.2-3.7,1.9-5.6,1.9H75c-7.5,0-13.7,2.5-18.7,7.5c-5,5-7.5,10.9-7.5,17.7v173.5c0,6.8,2.5,12.9,7.5,18.2S67.6,512.7,75,512.7z "></path> </svg> 