<?xml version="1.0" encoding="UTF-8"?> <!-- Generator: Adobe Illustrator 25.4.1, SVG Export Plug-In . SVG Version: 6.00 Build 0) --> <svg xmlns="http://www.w3.org/2000/svg" xmlns:xlink="http://www.w3.org/1999/xlink" version="1.1" id="Capa_1" x="0px" y="0px" viewBox="0 0 800 800" style="enable-background:new 0 0 800 800;" xml:space="preserve"> <style type="text/css"> .st0{fill:#FFFFFF;} </style> <g> <g> <path class="st0" d="M741.2,538.9H58.8c-21.4,0-38.8-17.4-38.8-38.8V133.2c0-21.4,17.4-38.8,38.8-38.8h682.4 c21.4,0,38.8,17.4,38.8,38.8v366.9C780,521.5,762.6,538.9,741.2,538.9z M58.8,125.7c-4.1,0-7.5,3.3-7.5,7.5v366.9 c0,4.1,3.4,7.5,7.5,7.5h682.4c4.1,0,7.5-3.3,7.5-7.5V133.2c0-4.1-3.3-7.5-7.5-7.5H58.8z"></path> </g> <g> <path class="st0" d="M318.9,435.8c-5.1-2.8-8.5-8.1-8.5-13.9V211.5c0-5.9,3.3-11.2,8.5-13.9c5.2-2.7,11.5-2.2,16.3,1.2L483,303.9 c4.1,2.9,6.6,7.7,6.6,12.8c0,5.1-2.5,9.8-6.6,12.8c0,0-110.9,78.9-147.9,105.2C332.4,436.5,326.6,440,318.9,435.8z M341.7,241.9 v149.6l105.2-74.8L341.7,241.9z"></path> </g> <path class="st0" d="M764.3,627.9H464.8c-7-26.6-31.2-46.4-60-46.4c-28.8,0-53.1,19.7-60,46.4H35.7c-8.7,0-15.7,7-15.7,15.7 c0,8.7,7,15.7,15.7,15.7h309.1c7,26.6,31.2,46.4,60,46.4c28.8,0,53.1-19.7,60-46.4h299.5c8.6,0,15.7-7,15.7-15.7 C780,634.9,773,627.9,764.3,627.9z M404.8,674.3c-16.9,0-30.7-13.8-30.7-30.7c0-16.9,13.8-30.7,30.7-30.7 c16.9,0,30.7,13.8,30.7,30.7C435.5,660.5,421.7,674.3,404.8,674.3z"></path> </g> </svg> 