<?xml version="1.0" encoding="UTF-8"?> <!-- Generator: Adobe Illustrator 25.4.1, SVG Export Plug-In . SVG Version: 6.00 Build 0) --> <svg xmlns="http://www.w3.org/2000/svg" xmlns:xlink="http://www.w3.org/1999/xlink" version="1.1" id="Capa_1" x="0px" y="0px" viewBox="0 0 800 800" style="enable-background:new 0 0 800 800;" xml:space="preserve"> <style type="text/css"> .st0{fill:#FFFFFF;} </style> <g> <path class="st0" d="M779.1,186.6c-5.7-35-34.9-59.2-70.9-63c-64.6-6.7-129.2-14.5-193.8-21.8c-67.5-7.6-135-15.2-202.5-22.8 c-32.6-3.7-65.3-7.3-97.9-11.4c-44.3-5.5-80.4,23.3-85.1,67.9c-0.5,4.4-0.9,9-1.5,13.5c-1.3,10.8,7.1,20.1,17.9,20.1l0,0 c9.1,0,16.7-6.8,17.9-15.8c0.7-5.9,1.5-11.6,2.3-17.3c3.4-22.6,21.3-34.9,43.9-32.2c71.1,8.3,142.4,16.4,213.5,24.6 c66.2,7.7,132.6,15.4,198.8,23.2c30,3.5,59.9,6.6,89.7,10.8c20.7,2.9,33.7,20,31.4,40.7c-5.3,48.1-11.1,96.2-16.7,144.4 c-5.7,49.4-11.5,98.6-17.2,148c-3.3,28.4-6.7,57-9.9,85.4c-1.6,13.7-9.8,22-23.5,27.4v-9.7c0-103.1,0.1-206.3,0-309.4 c0-33.3-14.6-58.4-44.3-74c-11.8-6.2-24.6-8.5-37.9-8.5c-138.3,0.1-276.6,0.1-415,0.1l0,0h-61.7c-5.9,0.1-11.4,0.4-17-0.1 c-46.3-3.5-79.6,34.2-79.5,79.3c0.1,33.1,0,66.2,0,99.5c0,90.6,0.1,181,0,271.6c0,24.1,7.4,44.6,26.4,60.1 c14,11.5,30.4,15.6,48.3,15.6c90.2-0.1,180.6,0,270.8,0c75.7,0,151.3-0.1,227,0.1c25.9,0,48-8,65.4-27.6 c12.6-14.3,18.1-31,17.2-49.8c-0.4-6.6,1.1-9.7,8.3-11.6c33-9,50.5-32.5,54.8-71c7.3-65.1,14.7-130.1,22-195.3 c6.1-54.3,12.2-108.6,18.4-162.9c0.2-1.6,0.9-3.3,1.4-4.9v-20.7C779.9,188.2,779.2,187.4,779.1,186.6z M638.9,497.7 c0,52,0,103.9,0,155.7c0,25.4-13.5,40-38.8,42c-2.5,0.2-4.9,0.2-7.4,0.2c-165.2,0-330.4,0-495.6,0c-4.9,0-9.9-0.1-14.7-1.2 C68.6,691.4,58,679,57.7,664.7c-0.5-22.7-0.2-45.5,0-68.2c0-2.2,1.6-5.3,3.5-6.6c46.5-34.4,93-68.8,139.8-102.7 c19.4-14,39.6-12.1,58.9,4.7c31.6,27.7,63,55.8,94.7,83.3c26.6,23.1,56.8,30.1,90.3,17.6c5.7-2.1,11.1-5.3,16.5-8.3 c56.5-32.5,112.9-65.3,169.3-97.9c2.2-1.3,4.6-2.6,8.3-4.7v15.9H638.9z M632.8,442.1c-63.9,37-127.7,74.3-191.6,111.4 c-22.8,13.2-42.2,11.4-61.9-5.9c-31.2-27.4-62.4-54.9-93.5-82.4c-33.5-29.5-73.5-31.4-109.9-5c-37.8,27.4-75.6,54.9-113.4,82.4 c-1.2,0.8-2.5,1.6-5.1,3.5v-7.8c0-83.8,0-167.7,0-251.5c0-12.9,2.5-25.2,12.6-33.5c5.5-4.6,13.3-6.6,20.4-9.2 c2.3-0.9,5.4-0.2,8.1-0.2h492.6c30.8,0,47.7,17,47.7,47.6c0,46.5-0.1,93,0.1,139.5C639,436.3,637.6,439.2,632.8,442.1z"></path> <path class="st0" d="M405.1,301.9c-42.2,0.1-77.5,35.5-77.3,77.7c0.1,42.4,35.3,77.3,77.7,77.2c42.7-0.1,77.3-35,77.2-77.6 C482.6,336.7,447.4,301.8,405.1,301.9z M405.4,419.9c-22.2,0.1-40.6-18.1-40.6-40.4c0-22.2,18.1-40.5,40.4-40.6 c22.2-0.1,40.6,18.1,40.7,40.4C446,401.3,427.6,419.8,405.4,419.9z"></path> </g> </svg> 