<?xml version="1.0" encoding="UTF-8"?> <!-- Generator: Adobe Illustrator 25.4.1, SVG Export Plug-In . SVG Version: 6.00 Build 0) --> <svg xmlns="http://www.w3.org/2000/svg" xmlns:xlink="http://www.w3.org/1999/xlink" version="1.1" id="Capa_1" x="0px" y="0px" viewBox="0 0 800 800" style="enable-background:new 0 0 800 800;" xml:space="preserve"> <style type="text/css"> .st0{fill:#FFFFFF;} </style> <g> <g> <path class="st0" d="M768.5,506.3c-6.3,0-11.5,5.1-11.5,11.5V667c0,2.1-1.7,3.8-3.8,3.8H647c-1.9,0-3.4-1.3-3.8-3.1 c0-0.2,0-0.5,0-0.7v-40.1v-82.5c0.4-1.1,0.6-2.3,0.6-3.5s-0.2-2.4-0.6-3.5v-30.5c0.4-1.1,0.6-2.3,0.6-3.5c0-1.2-0.2-2.4-0.6-3.5 V338.1v-34.7h68.5c6.3,0,11.5-5.1,11.5-11.5c0-6.3-5.1-11.5-11.5-11.5h-68.7V133c0-2.1,1.7-3.8,3.8-3.8h106.2 c2.1,0,3.8,1.7,3.8,3.8v61.2h-68c-6.3,0-11.5,5.1-11.5,11.5c0,6.3,5.1,11.5,11.5,11.5h68v147.3H686c-6.3,0-11.5,5.1-11.5,11.5 c0,6.3,5.1,11.5,11.5,11.5H757V460c0,6.3,5.1,11.5,11.5,11.5S780,466.3,780,460V133c0-14.8-12-26.8-26.8-26.8H647 c-14.8,0-26.8,12-26.8,26.8v139.7l-122.9,17l-299.9-33.8c-6.3-0.7-12,3.8-12.7,10.1c-0.7,6.3,3.8,12,10.1,12.7l210.4,23.7 l-93.2,12.9L98.8,291.3v-19.1c0-1.5,0.8-2.4,1.3-2.9c0.5-0.4,1.5-1.1,3-0.9l39.9,4.5c6.3,0.7,12-3.8,12.7-10.1 c0.7-6.3-3.8-12-10.1-12.7l-39.9-4.5c-7.6-0.8-15.2,1.6-20.9,6.6c-5.7,5.1-8.9,12.4-8.9,20v29.4v46.5l-45.9,6.4 c-5.7,0.8-9.9,5.6-9.9,11.4v55.4v205.8V667c0,14.8,12,26.8,26.8,26.8h316.5h59.2h59.2h134.7c5.7,0,10.9-1.8,15.3-4.8 c4.3,3,9.6,4.8,15.3,4.8h106.2c14.8,0,26.8-12,26.8-26.8V517.8C780,511.5,774.9,506.3,768.5,506.3z M98.8,314.4l121.3,13.7 L98.8,344.9V314.4z M43,375.8l577.2-79.9v32.2L43,408V375.8z M579,357l41.2-5.7v140.5H579V358.1C579,357.7,579,357.4,579,357z M472.8,371.7l83.2-11.5v131.6h-83.2V372C472.8,371.9,472.8,371.8,472.8,371.7z M449.9,374.9v116.9h-83.2V386.4L449.9,374.9z M343.7,389.6v102.2h-95.5v-89L343.7,389.6z M72.1,670.8H46.8c-2.1,0-3.8-1.7-3.8-3.8v-40.1V431.2l29.1-4V670.8z M123.1,670.8H95 V424l28.1-3.9V670.8z M174.2,670.8h-28.1V416.9l28.1-3.9L174.2,670.8L174.2,670.8z M225.2,670.8h-28.1v-261l28.1-3.9V670.8z M351.8,670.8H248.2V552.4h103.6V670.8z M411.1,670.8h-36.2V552.4h36.2V670.8z M470.3,670.8H434V552.4h36.2V670.8z M422.5,529.4 h-59.2H248.2v-14.6h372v14.6H481.8H422.5z M616.5,670.8H493.2V552.4h127V667c0,0.2,0,0.5,0,0.7 C619.9,669.5,618.3,670.8,616.5,670.8z"></path> </g> </g> </svg> 