<?xml version="1.0" encoding="UTF-8"?> <!-- Generator: Adobe Illustrator 25.4.1, SVG Export Plug-In . SVG Version: 6.00 Build 0) --> <svg xmlns="http://www.w3.org/2000/svg" xmlns:xlink="http://www.w3.org/1999/xlink" version="1.1" id="Capa_1" x="0px" y="0px" viewBox="0 0 800 800" style="enable-background:new 0 0 800 800;" xml:space="preserve"> <style type="text/css"> .st0{fill:#FFFFFF;} </style> <g> <path class="st0" d="M300.9,178.5h198.1c7,0,12.6-5.6,12.6-12.6v-37.2c0-7-5.6-12.6-12.6-12.6H300.9c-7,0-12.6,5.6-12.6,12.6v37.2 C288.3,172.8,294,178.5,300.9,178.5z M313.6,141.3h172.9v12H313.6V141.3z"></path> <path class="st0" d="M300.9,302.2h69.6c7,0,12.6-5.6,12.6-12.6v-69.6c0-7-5.6-12.6-12.6-12.6h-69.6c-7,0-12.6,5.6-12.6,12.6v69.6 C288.3,296.5,294,302.2,300.9,302.2z M313.6,232.5H358v44.4h-44.4V232.5z"></path> <path class="st0" d="M499.1,207.3h-69.6c-7,0-12.6,5.6-12.6,12.6v69.6c0,7,5.6,12.6,12.6,12.6h69.6c7,0,12.6-5.6,12.6-12.6v-69.6 C511.7,212.9,506,207.3,499.1,207.3z M486.4,276.9H442v-44.4h44.4V276.9z"></path> <path class="st0" d="M300.9,425.8h69.6c7,0,12.6-5.6,12.6-12.6v-69.6c0-7-5.6-12.6-12.6-12.6h-69.6c-7,0-12.6,5.6-12.6,12.6v69.6 C288.3,420.2,294,425.8,300.9,425.8z M313.6,356.2H358v44.4h-44.4V356.2z"></path> <path class="st0" d="M499.1,331h-69.6c-7,0-12.6,5.6-12.6,12.6v69.6c0,7,5.6,12.6,12.6,12.6h69.6c7,0,12.6-5.6,12.6-12.6v-69.6 C511.7,336.6,506,331,499.1,331z M486.4,400.6H442v-44.4h44.4V400.6z"></path> <path class="st0" d="M300.9,549.5h69.6c7,0,12.6-5.6,12.6-12.6v-69.6c0-7-5.6-12.6-12.6-12.6h-69.6c-7,0-12.6,5.6-12.6,12.6v69.6 C288.3,543.8,294,549.5,300.9,549.5z M313.6,479.8H358v44.4h-44.4V479.8z"></path> <path class="st0" d="M499.1,454.6h-69.6c-7,0-12.6,5.6-12.6,12.6v69.6c0,7,5.6,12.6,12.6,12.6h69.6c7,0,12.6-5.6,12.6-12.6v-69.6 C511.7,460.3,506,454.6,499.1,454.6z M486.4,524.3H442v-44.4h44.4V524.3z"></path> <path class="st0" d="M767.4,754.8h-51V257.7h51c4.9,0,9.4-2.9,11.5-7.3s1.3-9.7-1.9-13.5l-78.7-91.8c-2.4-2.8-5.9-4.4-9.6-4.4 H568.3V71.4c0-7-5.6-12.6-12.6-12.6h-44.1V32.6c0-7-5.6-12.6-12.6-12.6H300.9c-7,0-12.6,5.6-12.6,12.6v26.2h-44.1 c-7,0-12.6,5.6-12.6,12.6v69.2H111.3c-3.7,0-7.2,1.6-9.6,4.4L23,236.9c-3.2,3.7-3.9,9-1.9,13.5s6.5,7.3,11.5,7.3h51v497.1h-51 c-7,0-12.6,5.6-12.6,12.6S25.6,780,32.6,780h734.8c7,0,12.6-5.6,12.6-12.6S774.4,754.8,767.4,754.8z M691.2,754.8H568.3V552.6h63.2 c7,0,12.6-5.6,12.6-12.6v-75.8c0-7-5.6-12.6-12.6-12.6h-63.2V432h63.2c7,0,12.6-5.6,12.6-12.6v-75.8c0-7-5.6-12.6-12.6-12.6h-63.2 v-73.2h122.8V754.8z M568.3,476.7H619v50.6h-50.6V476.7z M568.3,356.2H619v50.6h-50.6V356.2z M682.9,165.9l57.1,66.6H568.3v-66.6 H682.9z M313.6,45.2h172.9v13.6H313.6V45.2z M256.9,84h286.2v670.8h-71.4V594.5c0-7-5.6-12.6-12.6-12.6H340.9 c-7,0-12.6,5.6-12.6,12.6v160.3h-71.4V84z M446.5,754.8h-93V607.1h93V754.8z M231.7,406.8H181v-50.6h50.6V406.8z M231.7,527.4H181 v-50.6h50.6V527.4z M117.1,165.9h114.5v66.6H60L117.1,165.9z M108.8,257.7h122.8V331h-63.2c-7,0-12.6,5.6-12.6,12.6v75.8 c0,7,5.6,12.6,12.6,12.6h63.2v19.5h-63.2c-7,0-12.6,5.6-12.6,12.6V540c0,7,5.6,12.6,12.6,12.6h63.2v202.2H108.8V257.7z"></path> </g> </svg> 