<?xml version="1.0" encoding="UTF-8"?> <!-- Generator: Adobe Illustrator 25.4.1, SVG Export Plug-In . SVG Version: 6.00 Build 0) --> <svg xmlns="http://www.w3.org/2000/svg" xmlns:xlink="http://www.w3.org/1999/xlink" version="1.1" id="Capa_1" x="0px" y="0px" viewBox="0 0 800 800" style="enable-background:new 0 0 800 800;" xml:space="preserve"> <style type="text/css"> .st0{fill:#FFFFFF;} </style> <g> <path class="st0" d="M404.3,16.8c27.5,0.2,54.8,3.6,81.7,9.4c42.3,9,81.6,25.6,118.3,48.4c58.9,36.5,104.1,86.1,137.1,146.8 c17.6,32.3,28.7,67,36.3,102.9c1.5,7.4-3.6,14.5-11.7,16.7c-9.2,2.6-16.1,0.2-18.6-7.5c-3.1-9.7-5.1-19.8-7.8-29.8 c-18.9-68.5-56.1-125.2-110.3-171c-36.5-30.8-77.2-54.2-122.9-68.3c-46-14.2-93.2-18-141.1-13.2c-64.3,6.6-122.1,29.6-173.6,68.3 c-42,31.5-75.2,70.8-99.6,117.4c-21.2,40.6-33.8,83.6-37.8,129.3c-8.1,91,14.3,173.5,69.5,246.5c35,46.4,79.3,81.6,132.1,106.1 c54.1,25.1,110.9,34.7,170.1,31.3c81.1-4.7,151.4-35.5,211.7-89.7c35.7-32.1,64-69.8,84-113.5c12.6-27.6,21.2-56.6,26.4-86.4 c1.2-6.5,3-12.8,10.4-15.1c12.9-3.9,24,5.5,21.1,19c-4,18.9-8.1,37.8-13.9,56.2c-18.7,60.1-51.9,111.5-96.9,155.1 c-36.4,35.3-78.4,62.4-125.7,80.9c-56.8,22.2-115.7,29.9-176.2,25.3c-71.6-5.6-135.5-32-193.1-74.6 C108,658.5,62.9,594.7,37.7,516.8c-16.1-50.4-20.6-102-15.9-154.4c7.4-81.8,39.1-153.3,92.5-215.1c42-48.5,94-83.4,153.7-106.7 C312,23.4,357.4,16.1,404.3,16.8z"></path> <path class="st0" d="M263.3,412c0-60.2,0-120.6,0-180.8c0-10,0.7-19.8,6-28.6c10.6-17.3,31.5-22.3,50.4-10.8 c26.3,16,52.1,32.8,78.1,49.5c69.3,44.2,138.5,88.5,207.8,132.6c8.3,5.2,15.8,11.3,20,20.4c8.5,18.4,3.8,39.1-12.9,50.5 c-21.6,14.7-43.6,28.5-65.7,42.5c-73,46.7-146.1,93.4-219.4,139.8c-6.6,4.3-14.3,7.8-22.1,9.6c-19.1,4.4-35.7-6.4-40.2-25.5 c-1.5-6.5-2-13.3-2-19.9C263.3,531.4,263.3,471.7,263.3,412z M296,411.8c0,60.7,0,121.3,0,182c0,2.6,0,5.1,0.2,7.7 c0.5,4.6,3.2,5.7,7,3.4c2.7-1.5,5.2-3.6,7.8-5.3c93.8-60,187.6-120.1,281.4-180.1c7.8-5,7.7-10.4-0.1-15.4 c-37.5-24-74.8-47.8-112.3-71.7c-56.9-36.4-113.7-72.9-170.6-109.3c-3.3-2.1-7.5-3-11.1-4.4c-0.7,3.9-2.1,7.8-2.3,11.7 C296,290.8,296.1,351.3,296,411.8z"></path> </g> </svg> 