<?xml version="1.0" encoding="UTF-8"?> <!-- Generator: Adobe Illustrator 25.4.1, SVG Export Plug-In . SVG Version: 6.00 Build 0) --> <svg xmlns="http://www.w3.org/2000/svg" xmlns:xlink="http://www.w3.org/1999/xlink" version="1.1" id="Capa_1" x="0px" y="0px" viewBox="0 0 800 800" style="enable-background:new 0 0 800 800;" xml:space="preserve"> <style type="text/css"> .st0{fill:#FFFFFF;} </style> <g> <path class="st0" d="M20,269.4c3.6-6.1,6.3-12.9,10.9-18.1c7.6-8.8,18.2-11.1,29.5-11.1c51.2,0.1,102.4,0,153.5,0 c2.9,0,5.8,0,9.4,0c0-22.5,0.1-44.2-0.2-65.9c0-1.4-2.3-3.5-3.9-4.2c-15.5-6.7-22.5-17-22.5-33.9c0-6.2-0.4-12.4,0.4-18.5 c2.2-17.6,15.8-28.9,34.5-29c46.2-0.1,92.5,0,138.7,0c65,0,130.1,0,195.1,0c24.5,0,37.4,13,37.4,37.6c0,5.7,0.3,11.4-0.5,17 c-1.8,12.8-9.2,21.5-21.1,26.5c-2,0.9-4.8,3.3-4.8,5c-0.3,19.8-0.2,39.6-0.2,59.3c0,1.7,0,3.4,0,6.1c3.5,0,6.4,0,9.2,0 c51.7,0,103.4-0.1,155,0.1c28,0.1,45.5,23.7,37.6,50.6c-4.8,16.2-16.5,24.6-34.1,26.8c0,3,0,6.1,0,9.2c0,122.1,0,244.3,0,366.4 c0,14.9-3,17.9-17.7,17.9c-219.3,0-438.6,0-658,0c-13.9,0-17.2-3.2-17.2-16.9c0-122.6,0-245.3,0-367.9c0-3,0-5.9,0-9.3 c-16.5-3.1-25.6-13.9-31.2-28.5C20,282.3,20,275.9,20,269.4z M552.8,619c0-149.1,0-297.8,0-446.9c-102.1,0-203.9,0-306.1,0 c0,149.1,0,297.8,0,446.9c17.4,0,34.3,0,51.9,0c0-3.4,0-6.3,0-9.2c0-47,0-94,0-140.9c0-12.5,3.2-15.7,15.8-15.7 c56.9,0,113.7,0,170.6,0c12.6,0,15.9,3.2,15.9,15.7c0,47.2,0,94.5,0,141.7c0,2.8,0,5.7,0,8.6C518.9,619,535.6,619,552.8,619z M720.6,642.6c-215.7,0-430.9,0-646.1,0c0,15.4,0,30.3,0,45.4c215.7,0,430.7,0,646.1,0C720.6,672.6,720.6,657.6,720.6,642.6z M720.7,318.1c-48.5,0-96.3,0-144.1,0c0,9.5,0,18.3,0,28c3,0,5.7,0,8.3,0c26.7,0,53.4,0,80.1,0c10.2,0,13.9,3.7,14,13.8 c0.1,14.6,0,29.2,0,43.8c0,13.5-3.2,16.7-16.5,16.7c-26,0-51.9,0-77.9,0c-2.6,0-5.2,0-7.8,0c0,5,0,9,0,13.5c3.3,0,6,0,8.7,0 c26.2,0,52.4,0,78.6,0c11.1,0,14.7,3.6,14.8,14.5c0.1,14.8,0.1,29.7,0,44.5c0,11.8-3.6,15.2-15.7,15.2c-26.2,0-52.4,0-78.6,0 c-2.6,0-5.3,0-8,0c0,5,0,9,0,13.5c3.2,0,5.9,0,8.6,0c26.7,0,53.4,0,80.1,0c9.5,0,13.5,4,13.6,13.5c0.1,15.3,0.1,30.7,0,46 c0,11-3.7,14.7-14.7,14.7c-26.7,0-53.4,0-80.1,0c-2.6,0-5.2,0-7.4,0c0,8.5,0,15.8,0,23.2c48.2,0,95.8,0,143.9,0 C720.7,518.6,720.7,418.6,720.7,318.1z M218.5,508.1c-3.4,0-6,0-8.7,0c-26.5,0-52.9,0-79.4,0c-10.5,0-14.4-3.8-14.4-14.2 c-0.1-14.8-0.1-29.7,0-44.5c0-12.1,3.4-15.5,15.3-15.5c26.5,0,52.9,0,79.4,0c2.6,0,5.2,0,7.8,0c0-5,0-8.9,0-13.5 c-3.1,0-5.7,0-8.4,0c-26.2,0-52.4,0-78.6,0c-11.9,0-15.4-3.6-15.4-15.6c-0.1-14.6-0.1-29.2,0-43.8c0-11.6,3.4-14.9,15.1-14.9 c26.5,0,52.9,0,79.4,0c2.6,0,5.3,0,7.9,0c0-10,0-19,0-28.1c-48.3,0-96.1,0-144,0c0,100.6,0,200.6,0,300.9c48.3,0,96.1,0,144.1,0 c0-7.8,0-15.1,0-23.1c-3,0-5.7,0-8.3,0c-26.7,0-53.4,0-80.1,0c-10,0-13.9-3.8-14-13.8c-0.1-15.1-0.1-30.2,0-45.2 c0-11.6,3.6-15.1,15-15.1c26.5,0,52.9,0,79.4,0c2.6,0,5.3,0,8.2,0C218.5,516.9,218.5,513,218.5,508.1z M400,149.1 c52.9,0,105.8,0,158.7,0c20.9,0,21.3-0.4,21.3-21c0-14.6-1.7-16.4-16.1-16.4c-107.5,0-215,0-322.5,0c-21.7,0-21.7,0-21.6,22 c0,13,2.5,15.4,15.7,15.4C290.3,149.1,345.1,149.1,400,149.1z M387.7,619c0-47.9,0-95.4,0-142.7c-22.4,0-44.3,0-65.9,0 c0,48,0,95.3,0,142.7C344.1,619,365.7,619,387.7,619z M478.1,476.1c-22.4,0-44.3,0-66.3,0c0,47.8,0,95.1,0,142.8 c22.3,0,44.1,0,66.3,0C478.1,571.2,478.1,524.1,478.1,476.1z M223.1,263.2c-27.7,0-54.6,0-81.5,0c-27.7,0-55.4-0.1-83,0 c-9.6,0-14.8,4.5-15.8,13.1c-1.4,11.4,4.7,18.3,16.5,18.4c52.9,0,105.8,0,158.7,0c1.6,0,3.3-0.3,5.1-0.5 C223.1,283.9,223.1,274.1,223.1,263.2z M576.5,294c1.2,0.3,1.7,0.6,2.1,0.6c54.6,0,109.2,0.1,163.8,0c8.2,0,13.3-5.1,14.3-13.1 c1.4-11.4-4.7-18.3-16.6-18.3c-52.9-0.1-105.8,0-158.6,0c-1.6,0-3.3,0.4-5.1,0.6C576.5,274.1,576.5,283.9,576.5,294z M218.6,544.9 c-27,0-53.3,0-79.5,0c0,9.6,0,18.6,0,27.8c26.7,0,53,0,79.5,0C218.6,563.2,218.6,554.4,218.6,544.9z M656,544.8 c-26.6,0-52.9,0-79.4,0c0,9.5,0,18.5,0,28c26.6,0,52.9,0,79.4,0C656,563.2,656,554.2,656,544.8z M218.6,369.3c-27,0-53.2,0-79.4,0 c0,9.5,0,18.5,0,27.5c26.7,0,53,0,79.4,0C218.6,387.4,218.6,378.6,218.6,369.3z M576.5,396.7c27,0,53.2,0,79.3,0 c0-9.6,0-18.6,0-27.3c-26.8,0-53,0-79.3,0C576.5,378.7,576.5,387.5,576.5,396.7z M139.3,456.9c0,9.6,0,18.7,0,28 c26.6,0,52.7,0,79,0c0-9.6,0-18.8,0-28C191.6,456.9,165.5,456.9,139.3,456.9z M576.5,484.6c27,0,53.2,0,79.3,0c0-9.6,0-18.6,0-27.5 c-26.8,0-53,0-79.3,0C576.5,466.5,576.5,475.3,576.5,484.6z"></path> <path class="st0" d="M433.7,332.5c0,14.5,0,28.5,0,42.5c0,13.8-3.3,17.1-17.1,17.1c-13.6,0-27.2,0.1-40.8,0 c-10.9-0.1-14.6-3.9-14.6-14.8c-0.1-14.3-0.1-28.7-0.2-43c0-0.4-0.4-0.9-1-2.1c-13.9,0-28.1,0-42.4,0c-13.1,0-16.1-3-16.1-16.1 c0-13.8-0.1-27.7,0-41.5c0.1-11,3.6-14.5,14.8-14.6c12.1-0.1,24.2,0,36.3,0c2.7,0,5.3,0,8.6,0c0-15.4,0-30,0-44.5 c0-11.8,3.7-15.4,15.6-15.4c13.8,0,27.7,0,41.5,0c11.6,0,15.4,3.8,15.4,15.7c0,14.3,0,28.6,0,44.2c3.3,0,6.2,0,9,0 c12.4,0,24.7-0.1,37.1,0.1c9.6,0.1,13.5,4.1,13.5,13.6c0.1,14.6,0.1,29.2,0,43.7c0,11-3.6,14.8-14.5,14.8c-12.4,0.1-24.7,0-37.1,0 C439.3,332.2,436.9,332.3,433.7,332.5z M409.8,368.7c0.3-1,0.6-1.4,0.6-1.9c0.1-11.4,0.2-22.7,0.2-34.1c0-22.4,0.8-23.2,23.4-23.2 c12,0,24,0,36.1,0c0-9.4,0-17.7,0-26.8c-2.8,0-5.2,0-7.6,0c-12.6,0-25.2,0.1-37.8,0c-9.8-0.1-13.8-4.1-14.1-14 c-0.1-3.2,0-6.4,0-9.6c0-11.8,0-23.6,0-35.6c-9.3,0-17.6,0-26.8,0c0,14.6,0,28.9,0,43.2c0,12.9-3.3,16.1-16.3,16.1 c-14.3,0-28.5,0-42.9,0c0,9.3,0,17.8,0,26.8c14.8,0,29.1,0,43.4,0c12.4,0,15.7,3.4,15.7,15.9c0,14.3,0,28.6,0,43.3 C392.9,368.7,401.2,368.7,409.8,368.7z"></path> </g> </svg> 