<?xml version="1.0" encoding="UTF-8"?> <!-- Generator: Adobe Illustrator 25.4.1, SVG Export Plug-In . SVG Version: 6.00 Build 0) --> <svg xmlns="http://www.w3.org/2000/svg" xmlns:xlink="http://www.w3.org/1999/xlink" version="1.1" id="Capa_1" x="0px" y="0px" viewBox="0 0 800 800" style="enable-background:new 0 0 800 800;" xml:space="preserve"> <style type="text/css"> .st0{fill:#FFFFFF;} </style> <g> <path class="st0" d="M737.9,367c11.7,0,21.6,4.1,29.8,12.3c8.2,8.2,12.3,18.1,12.3,29.8v169.2c-0.5,14-6.3,25.3-17.6,33.7 c-7,5.6-15.2,8.4-24.6,8.4h-99.7c-10.3,0-19.2-3.3-26.7-9.8c-1.4,0.5-2.6,0.7-3.5,0.7H192c-1.4,0-2.8-0.2-4.2-0.7 c-7.5,6.6-16.1,9.8-26,9.8H62.1c-11.7,0-21.6-4.1-29.8-12.3C24.1,600,20,590,20,578.3V409.1c0-11.7,4.1-21.6,12.3-29.8 c8.2-8.2,18.1-12.3,29.8-12.3h33c1.9-52,21.5-96.2,59-132.7s82.2-54.8,134.1-54.8h225c52,0,96.7,18.3,134.1,54.8 s57.1,80.7,59,132.7H737.9z M288.2,202.7c-45.9,0-85.3,16-118.3,48.1s-50.2,70.8-51.6,116.2h43.5c11.2,0,20.9,4.1,29.1,12.3 c8.2,8.2,12.3,18.1,12.3,29.8v49.2H596v-49.2c0-11.7,4.1-21.6,12.3-29.8c8.2-8.2,18.1-12.3,29.8-12.3h44.9 c-0.9-30-9.1-57.5-24.6-82.5c-15.4-25-36-44.9-61.8-59.7c-25.7-14.7-53.6-22.1-83.6-22.1H288.2z M203.3,578.3 c0,3.3-0.5,6.6-1.4,9.8h395.6c-0.9-3.3-1.4-6.6-1.4-9.8v-97.6H203.3V578.3z M180.8,578.3V409.1c0-7.5-2.3-12.5-7-15.1 c-4.7-2.6-8.7-3.9-11.9-3.9H62.1c-5.1,0-9.6,1.9-13.3,5.6c-3.7,3.7-5.6,8.2-5.6,13.3v169.2c0,5.1,1.9,9.6,5.6,13.3 c3.7,3.7,8.2,5.6,13.3,5.6h99.7c5.1,0,9.6-1.9,13.3-5.6C178.9,587.9,180.8,583.5,180.8,578.3z M756.8,578.3V409.1 c0-7.5-2.3-12.5-7-15.1c-4.7-2.6-8.7-3.9-11.9-3.9h-99.7c-5.1,0-9.6,1.9-13.3,5.6s-5.6,8.2-5.6,13.3v169.2c0,5.1,1.9,9.6,5.6,13.3 s8.2,5.6,13.3,5.6h99.7c5.1,0,9.6-1.9,13.3-5.6C755,587.9,756.8,583.5,756.8,578.3z M308.6,353c-2.3,0-4.7-1.2-7-3.5 s-3.5-5.1-3.5-8.4v-16.1c0-2.8,1.2-5.4,3.5-7.7s5-3.5,8.1-3.5s5.7,1.2,8.1,3.5s3.5,4.9,3.5,7.7V341C321.2,349,317,353,308.6,353z M491.8,353c-2.1,0-4.1-0.7-6-2.1c-3.7-1.9-5.6-5.1-5.6-9.8v-16.1c0-3.3,1.2-6,3.5-8.1c2.3-2.1,5-3.2,8.1-3.2s5.7,1.1,8.1,3.2 c2.3,2.1,3.5,4.8,3.5,8.1V341c0,4.7-1.4,7.8-4.2,9.5C496.3,352.1,493.9,353,491.8,353z"></path> </g> </svg> 