<?xml version="1.0" encoding="UTF-8"?> <!-- Generator: Adobe Illustrator 25.4.1, SVG Export Plug-In . SVG Version: 6.00 Build 0) --> <svg xmlns="http://www.w3.org/2000/svg" xmlns:xlink="http://www.w3.org/1999/xlink" version="1.1" id="Capa_1" x="0px" y="0px" viewBox="0 0 800 800" style="enable-background:new 0 0 800 800;" xml:space="preserve"> <style type="text/css"> .st0{fill:#FFFFFF;} </style> <g> <path class="st0" d="M40.3,780c-9.8-3.7-16.5-10.4-20.3-20.4v-8.9c0.3-0.8,0.7-1.7,1-2.5c0.9-2.3,1.8-4.7,2.8-7l13.5-33.3 c16.2-40.1,32.9-81.5,49.6-122.3c2.9-7.1,3.7-13.6-2.4-21.8c-30.2-40.8-49.9-86-58.4-134.4c-1.7-9.4-3-19.2-4.1-28.7 c-0.6-4.4-1.2-8.6-1.7-13V351c0.1-0.5,0.2-0.9,0.3-1.4c0.5-1.6,0.9-3.3,1-5.3c3.7-49.2,17.4-94.3,41-134.4 c30.8-52.3,70.3-94.4,117.5-125.3c45.7-29.9,100-50,161.2-59.9c9-1.4,18.2-2.4,27.1-3.3c4.1-0.5,8.3-0.9,12.6-1.4h38.5 c2.6,0.3,5.3,0.7,7.9,0.9c5.9,0.7,11.9,1.4,17.7,2.1c88.8,9.8,165.6,44.9,228.3,104.6c56.4,53.7,90.9,118.6,102.4,193.1 c1.2,7.5,2.1,15.2,3,22.6c0.5,3.5,0.8,6.9,1.3,10.3v31c-0.5,3.7-0.9,7.5-1.4,11.2c-0.9,8.2-2,16.6-3.2,24.8 c-7.5,48.7-26.1,94.9-55.4,137.3c-5.1,7.4-12.8,11.6-21.1,11.6c-5,0-9.9-1.6-14.2-4.5c-11.9-8.2-14.3-23-5.9-35.5 c24.3-35.9,39.4-72.2,46.1-110.9c13-74.7-2.3-144.2-45.5-206.5C630.2,141.3,561.2,96.5,474,78.7c-26.7-5.4-53.2-8.2-78.7-8.2 c-77.7,0-149.6,25.5-213.3,75.7c-59.8,47.1-95.9,107.5-107.6,179.4c-13,80.8,7.1,155,59.8,220.3c11.2,13.8,12.9,25.8,6.1,41.5 c-10.1,23.3-19.7,47.2-28.9,70.4c-3.8,9.4-7.5,18.9-11.3,28.3c-0.7,1.7-1.3,3.5-2.1,5.5c-0.3,1.2-0.8,2.3-1.4,3.8l-3.3,9.3l9.2-3.6 c1.3-0.5,2.3-0.9,3.3-1.3c2-0.7,3.6-1.4,5.3-2.1l25.8-11.4C170,672,203.9,657,237.4,642.1c4.4-2,8.5-2.9,12.8-2.9 c3.9,0,7.8,0.8,12,2.4c46.1,18.4,92.6,27.8,138.2,27.8c52.9,0,106.1-12.6,158.1-37.2c4.4-2.1,8.9-3.1,13.4-3.1 c7.1,0,13.6,2.8,18.1,7.7c4.7,5.1,6.8,12.2,6.1,19.9c-0.8,9-5.9,15.8-15.4,20.5c-35.4,17.6-72.9,29.8-111.6,36.4 c-23.5,3.9-47.1,6-70.3,6c-47.7,0-95.4-8.5-141.5-25.2c-1.6-0.6-3.6-0.9-5.6-0.9c-3.2,0-6.7,0.7-9.6,2 c-51.4,22.5-103.5,45.5-153.9,67.7l-27.2,12c-2.6,1.2-5.3,2.4-7.8,3.6l-2.8,1.3L40.3,780L40.3,780z"></path> <path class="st0" d="M425.2,567.6c-28.3,0-53.6-14.6-69-40.2c-10.8-17.9-13.7-37.4-8.8-58.3c7.1-29.9,14.9-60.3,22.3-89.8l3.7-14.4 c1.8-7.1,2.8-16.1-5.5-23.3c-3.9-3.3-8.3-5.1-13-5.1c-3.7,0-7.6,1-11.9,3.2l-0.2,0.1c-3.5,1.7-7,2.6-10.8,2.6 c-9,0-17.2-5.1-21.1-13.2l-6.1-12.4c-2.9-5.9-3.2-12.4-0.9-18.5c2.2-6,6.7-10.8,12.4-13.4c14.2-6.2,26.9-9.3,39.3-9.3 c9.4,0,18.5,1.7,27.9,5.3c38.1,14.6,59.5,55.3,49.8,94.7l-4.4,17.4c-7.1,28.7-14.5,58.4-22.1,87.5c-2.2,8.6-0.1,15.8,6.1,21.3 c3.9,3.3,8.2,5.1,12.9,5.1l0,0c3.1,0,6.2-0.8,9.3-2.3l0.2-0.1c2.9-1.4,6-2.1,9.2-2.1c8.2,0,15.5,4.6,19.2,12l7.9,16.2 c2.6,5.4,2.9,11.5,0.8,17.2c-2.2,5.6-6.6,10.1-12.2,12.4C448.5,565.2,436.7,567.6,425.2,567.6z"></path> <path class="st0" d="M408.7,230.4c-10.7,0-20.7-4.1-28.2-11.5c-7.4-7.4-11.3-17.2-11.3-27.6c0.1-21.4,17.6-38.9,39-39h0.2 c10.7,0,20.8,4.1,28.3,11.6c7.4,7.4,11.4,17.2,11.4,27.5c-0.1,21.4-17.6,38.8-39.2,38.9L408.7,230.4z"></path> </g> </svg> 