<?xml version="1.0" encoding="UTF-8"?> <!-- Generator: Adobe Illustrator 25.4.1, SVG Export Plug-In . SVG Version: 6.00 Build 0) --> <svg xmlns="http://www.w3.org/2000/svg" xmlns:xlink="http://www.w3.org/1999/xlink" version="1.1" id="Capa_1" x="0px" y="0px" viewBox="0 0 800 800" style="enable-background:new 0 0 800 800;" xml:space="preserve"> <style type="text/css"> .st0{stroke:#000000;stroke-width:2;stroke-miterlimit:10;} </style> <path class="st0" d="M359,253.3c0-1.3,2.2-3.9,6.7-7.9c4.4-4,11.1-8.4,20-13c20.3-10.2,38.7-11.9,55.2-5.1l62.2,21 c6.3,2.1,10.2,8.5,11.4,19c0,1.7,0.6,2.5,1.9,2.5s2.5-0.2,3.8-0.6c6.3-5.1,12.9-6.3,19.7-3.8l20.3,6.3c2.1,0.8,3.2,2.3,3.2,4.4 c0,0.4-0.2,1.1-0.6,1.9l-14.6,44.4c-0.8,2.1-2.3,3.2-4.4,3.2c-0.4,0-1.1-0.2-1.9-0.6l-19.7-6.3c-7.2-2.1-11.6-8-13.3-17.8 c-0.4-0.8-2.5-1.9-6.3-3.2c-3.8-1.3-8.1-0.6-13,1.9c-4.9,2.5-8.1,6.3-9.8,11.4l-5.7,16.5c-0.8,3-2.8,4-5.7,3.2l-40.6-14 c-2.1-0.4-3.2-1.7-3.2-3.8v-1.9l6.3-17.8c2.1-6.3,1.5-12.6-1.9-18.7c-3.4-6.1-9.4-11.2-18.1-15.2c-8.7-4-24.2-4.6-46.7-1.6h-0.6 C360.5,257.8,359,256.3,359,253.3z M437.8,235.6c-17.8-6.8-37.2-3-58.4,11.4c29.6-1.7,49.1,6.3,58.4,24.1c4.2,8,4.9,16.3,1.9,24.8 l-4.4,14l31.7,10.8l3.8-12.1c2.5-8,7.4-13.8,14.6-17.1c7.2-3.4,14.2-4.1,21-2.2c6.8,1.9,10.6,5.3,11.4,10.2s3.4,8.4,7.6,10.5 l15.2,5.1l1.3-4.4c0.4,0,0.6-0.2,0.6-0.6l10.2-30.5l-15.2-5.1c-3.8-2.1-7.7-1.5-11.7,1.9c-4,3.4-8.3,4.1-12.7,2.2 c-4.4-1.9-7-5.7-7.6-11.4s-2.4-9.2-5.4-10.5l-61.6-20.3L437.8,235.6z M421.3,325.7c0.8-2.1,2.5-3.2,5.1-3.2c2.5,0,3.8,1.7,3.8,5.1 v1.3l-19,48.9c-2.1-1.7-5.1-2.8-8.9-3.2L421.3,325.7z M429.5,377.1c-2.1-0.4-3.2-2-3.2-4.8s1.5-4.1,4.4-4.1h1.9l15.2,5.7 c0,0,4.4-15.2,4.4-15.2c-2.4-0.9-4.8-1.8-7.2-2.7c-1.6-0.6-3.1-1.1-4.7-1.7c-2-0.7-4.4-0.9-5.8-2.7c-1-1.2-1.1-3-0.4-4.4 c1.3-2.8,4.3-3.3,6.9-2.4c1.8,0.7,3.6,1.3,5.4,1.8c2.8,0.9,5.6,1.7,8.4,2.6c0,0,3.2-10.8,3.2-10.8c0.4-2.1,2-3.2,4.8-3.2 c6.5,0,3.5,8.5,2.5,12.1c-2.5,9.6-5.8,18.9-8.6,28.5c-1.6,5.6-3.2,11.2-4.9,16.8c-1.7,6-3.5,12-5.2,18c-1.6,5.4-3.1,10.8-4.7,16.1 c-1.1,3.7-2.2,7.5-3.2,11.2c-0.3,1.1-0.6,2.2-1,3.3c-1.7-4.2-3.4-8.9-5.1-14l5.7-19.7l-14-5.1c0,0-0.6-0.6-0.6-0.6 c-0.3-0.3-0.4-1.1-0.5-1.5c-0.3-0.8-0.6-1.6-0.8-2.3c-0.4-1.1-0.8-2.1-1.1-3.2c-0.2-0.7-1.2-1.8-0.1-2.2c0.3-0.1,0.6-0.1,0.8,0 c1.9,0.2,3.6,0.9,5.3,1.6c1.8,0.7,3.6,1.2,5.4,1.8c2.5,0.8,5,1.7,7.4,2.5c0,0,0.7,0.2,0.7,0.2c0,0,4.4-15.9,4.4-15.9L429.5,377.1z M236.4,470.5c-0.6,11.4,1.4,23.2,5.8,33.2c2.4,5.5,5.5,10.6,9.2,15.3c10.8,13.8,25.3,23.8,43.5,30.2c2.1,0.8,3.2,2.6,3.2,5.4 c0,2.8-1.7,4.1-5.1,4.1h-1.3c-20.3-7.2-36.4-18.5-48.3-34c-5.5-7.1-10-15.1-12.6-23.8c-2.6-9-4-18.3-3.9-27.6 c0-6.8,0.7-13.6,2.1-20.2c1.4-6.2,4.2-12.1,7.1-17.8c2-4,4-8.3,6.6-11.9c1.3-1.7,2.8-2.5,4.4-2.5c3,0,4.4,1.7,4.4,5.1 c0,0.8-0.2,1.7-0.6,2.5c-4.5,7.2-8.4,14.8-11.2,22.8C237.9,457.4,236.7,463.9,236.4,470.5z M267,407c-0.8,0.8-2.1,1.3-3.7,1.3 c-2.5,0-4.5-2-4.5-4.5c0-1.3,0.3-2.3,1-3.2c0.6-0.8,1.5-1.9,2.5-3.2s2.8-3.8,5.1-7.6c2.3-3.8,3.9-7.6,4.8-11.4 c3-10.6,2.8-20.1-0.6-28.6v0c-0.6-4,2.7-7.6,6.8-7.1l0,0c1,0.1,1.9,0.4,2.7,1c2.1,1.4,4,3,5.8,4.6c2.1,1.9,5,6.5,8.6,13.7 s5.8,15.4,6.7,24.8c12.9-32.6,3.9-61.6-27.3-87.2c-0.8-0.7-1.4-1.6-1.6-2.7l-0.1-0.7c-0.5-3.1,1.2-6.1,4.1-7.3l0,0 c0.9-0.4,1.9-0.4,2.8-0.2c11.2,3.1,24.7,9.3,40.5,18.7c1.7,1.3,2.5,2.5,2.5,3.8s-0.5,2.8-1.6,4.4s-3.9,1.2-8.6-1.6 c-4.7-2.8-10.8-5.8-18.4-9.2c13.5,14.8,21.2,31.3,22.9,49.5s-3.6,36.4-15.9,54.6l-10.8,15.2l1.9-18.4c1.6-18.5-0.8-33.2-7.2-44.1 c-0.3-0.4-0.9-0.2-0.9,0.3C284.9,377.7,279.2,392.7,267,407z M374.9,379c-8.5-18.6-22.4-35.8-41.9-51.4c-1.3-0.8-1.9-2.1-1.9-3.8 c0-3,1.5-4.4,4.4-4.4c1.7,0,4.9,1.9,9.5,5.7c17.4,14.8,30.1,31.5,38.1,50.2c0.4,0.8,0.6,1.5,0.6,1.9c0,3.4-1.7,5.1-5.1,5.1 C377,382.2,375.8,381.2,374.9,379z M327.1,444.7c-0.4-0.3-1,0-0.9,0.5c1,12.9-1,23.4-6.2,31.6c-2.1,3.4-4.4,7.2-7.3,10 c-3,2.9-6.6,5-10.1,7.1c-2.6,1.6-5.3,3.3-7.1,5.8c-2.3,3.3-2.7,7.5-2.3,11.5c0.5,5,2.3,10,5.6,13.8c2.5,2.9,5.8,5.1,9.5,6.2 c1.2,0.4,2.4,0.6,3.4,1.2c1.1,0.6,2,1.5,2.2,2.7c0.1,0.9-0.2,1.8-0.6,2.7c-0.5,1.4-1.3,3-2.7,3.4c-0.7,0.2-1.5,0.1-2.3-0.1 c-7.3-1.8-14-6.3-18.4-12.4c-5.4-7.4-7.4-17.3-5.1-26.2c2.1-7.8,7.5-14.6,14.8-18.3c12.7-6.4,17.8-20.9,17.1-34.4 c-0.3-5.2-1.3-10.4-2.7-15.4l-0.2-0.8c-0.9-3.8,3.2-6.9,6.6-5l1.2,0.7c13.5,7.6,24.1,19.5,31.7,35.6c-3,5.5-4.9,9.1-5.7,10.8 C342.7,462.9,335.9,452.7,327.1,444.7z M427,450.8c8.9,21.6,20.1,41.6,33.7,60c13.5,18.4,20.3,36.9,20.3,55.6s-3.6,34.1-10.8,46.3 c-7.2,12.3-16.9,22-29.2,29.2c-12.3,7.2-25.6,10.8-40,10.8c-22,0-40.8-7.8-56.5-23.5S321,594.6,321,572.4c0-22.2,7.6-43.9,22.9-65.1 c5.1-7.1,9.6-14.6,13.7-22.2c5-9.4,9.5-19,13.7-28.8c5.2-12.2,9.8-24.6,14.3-37.1c2.6-7.4,5.3-14.7,7.9-22.1c1.1-3,2.9-9.2,6.9-9.2 c3.4,0,5.9,2.8,7.6,8.3c5.9,19,10.5,32.6,13.7,40.6C424.8,444.9,426.6,449.5,427,450.8z M365.7,634.3c10.8,6.3,24.2,9.5,40.3,9.5 c16.1,0,31-7,44.8-21c13.8-14,20.6-31,20.6-51.1s-7-39.9-21-59.4c-10.6-14.4-17.9-26.1-21.9-35.2c-4-9.1-6.5-14.7-7.3-16.8 c-5.5-12.3-10.2-24.4-14-36.5c-3.8-12.1-5.9-18.5-6.3-19.4c-0.4,1.3-1.3,3.6-2.5,7c-6.3,18.6-12.7,35.6-19,50.8l-2.5,5.7 c-8.5,18.2-16.9,33.2-25.4,45.1l-7.6,12.1c-8.9,15.7-13.3,30.8-13.3,45.4c0,14.6,3.2,27.3,9.5,38.1S354.9,627.9,365.7,634.3z M498.1,561.8c-0.9,0.1-1.8,0-2.6-0.5c-0.8-0.5-1.4-1.3-1.7-2.2c-2.1-6.3,6.1-7.6,9.9-9.7c4.7-2.5,8.7-6,12.2-10.1 c0.9-1.1,1.7-2.1,2.5-3.3c5.9-8.3,8.9-18,8.9-29.2c0-11.2-5.1-23.7-15.2-37.5c-10.2-13.8-19.9-35.2-29.2-64.4 c-10.6,30.5-21,52.7-31.1,66.7c-2.5,2.1-4.6,2.6-6,1.6c-1.5-1.1-2.2-2.2-2.2-3.5s0.2-2.2,0.6-2.9s1-1.5,1.6-2.5 c0.6-1.1,1.2-1.8,1.6-2.2c8.5-13.1,15.6-28,21.3-44.8c5.7-16.7,9.1-25.9,10.2-27.6c1.1-1.7,2.5-2.5,4.4-2.5c1.9,0,3.2,0.7,3.8,2.2 c0.6,1.5,2,5.2,4.1,11.1c9.3,29.2,19.3,51,29.8,65.4s15.9,28,15.9,41s-3.7,24.4-11.1,34.6c-3.3,4.6-7.2,8.8-11.7,12.2 c-2.5,1.9-5.3,3.5-8.2,4.9C503.8,559.6,500.8,561.6,498.1,561.8z"></path> <path d="M776.2,367L435.9,115.6c-10.2-7.2-22.1-10.8-35.9-10.8s-25.5,3.6-35.2,10.8L24.4,367c-3,2.1-4.4,4.7-4.4,7.6 c0,3,0.8,5.5,2.5,7.6c1.7,2.1,4,3.2,7,3.2c3,0,5.3-0.6,7-1.9L74,356.2v292.1c0,8.5,2.1,16.3,6.4,23.5c8.9,15.7,22.2,23.5,40,23.5 h559.4c12.7,0,23.7-4.5,33-13.6c9.3-9.1,14-20.2,14-33.3V356.2l36.8,27.3c2.1,1.7,4.2,2.5,6.4,2.5c6.8,0,10.2-3.8,10.2-11.4 C780,371.6,778.7,369.1,776.2,367z M705.7,351.1v297.1c0,7.2-2.5,13.3-7.6,18.4c-5.1,5.1-11.2,7.6-18.4,7.6H120.3 c-4.7,0-8.9-1.1-12.7-3.2c-8.9-5.1-13.3-12.7-13.3-22.9V351.1c0-3-1.1-5.5-3.2-7.6l285.7-211.4c6.3-4.2,14.1-6.3,23.2-6.3 s16.8,2.1,23.2,6.3l285.7,211.4C706.8,345.6,705.7,348.2,705.7,351.1z"></path> </svg> 