<?xml version="1.0" encoding="UTF-8"?> <!-- Generator: Adobe Illustrator 25.4.1, SVG Export Plug-In . SVG Version: 6.00 Build 0) --> <svg xmlns="http://www.w3.org/2000/svg" xmlns:xlink="http://www.w3.org/1999/xlink" version="1.1" id="Capa_1" x="0px" y="0px" viewBox="0 0 800 800" style="enable-background:new 0 0 800 800;" xml:space="preserve"> <style type="text/css"> .st0{fill:#FFFFFF;} </style> <g> <path class="st0" d="M769.2,138.6c2.7,0,5.2,1,7.4,3c2.3,2,3.4,4.6,3.4,7.8v501.3c0,7.2-3.6,10.8-10.8,10.8h-48.6 c-2.7,0-5.2-1-7.4-3c-2.3-2-3.4-4.6-3.4-7.8v-47.3H317.2c-7.2,0-10.8-3.8-10.8-11.5v-23.6c-1.4,0.5-2.7,0.7-4.1,0.7H90.3v81.7 c0,3.2-1.1,5.7-3.4,7.8s-5,3-8.1,3h-48c-2.7,0-5.2-1-7.4-3s-3.4-4.6-3.4-7.8V149.4c0-3.2,1.1-5.7,3.4-7.8c2.3-2,4.7-3,7.4-3h48 c3.2,0,5.9,1,8.1,3c2.3,2,3.4,4.6,3.4,7.8v91.9h85.1c25.7,0,47.5,9.1,65.5,27.4c18,18.2,27.2,40,27.7,65.2h33.8 c2.7,0,5.2,1.1,7.4,3.4c2.3-2.3,4.7-3.4,7.4-3.4h392.5V149.4c0-3.2,1.1-5.7,3.4-7.8c2.3-2,4.7-3,7.4-3H769.2z M68,639.8v-479H42.3 v478.3L68,639.8z M90.3,263.5v70.3h156.1c0-19.4-7-35.9-20.9-49.7c-14-13.7-30.6-20.6-50-20.6H90.3z M302.4,546.6 c1.4,0,2.7,0.5,4.1,1.4V355.4c-1.4,0.5-2.7,0.7-4.1,0.7H95v190.5H302.4z M328.7,356.1v225h39.2v-225H328.7z M390.2,581h319.5v-225 H390.2V581z M757.7,639.8v-479H732v478.3L757.7,639.8z"></path> </g> </svg> 