<?xml version="1.0" encoding="UTF-8"?> <!-- Generator: Adobe Illustrator 25.4.1, SVG Export Plug-In . SVG Version: 6.00 Build 0) --> <svg xmlns="http://www.w3.org/2000/svg" xmlns:xlink="http://www.w3.org/1999/xlink" version="1.1" id="Capa_1" x="0px" y="0px" viewBox="0 0 800 800" style="enable-background:new 0 0 800 800;" xml:space="preserve"> <style type="text/css"> .st0{fill:#FFFFFF;} </style> <g> <path class="st0" d="M230.1,238.5c-4.2,0-7.9-1.6-11-4.7s-4.7-7.2-4.7-12.1c0-47.5,7-78.3,21-92.3c14-14,43.3-21.3,88.1-22V74.9 c0-11.2,4.9-21.3,14.7-30.4c19.6-16.1,48.2-24.1,86-24.1h46.1c28,0,51.7,10,71.3,29.9s29.4,43.9,29.4,71.8v334.5 c0,6.3-1.9,10.5-5.8,12.6s-7.7,3.1-11.5,3.1c-3.8,0-7.3-1.6-10.5-4.7c-3.1-3.1-4.7-6.8-4.7-11V122.1c0-19.6-6.6-36-19.9-49.3 c-13.3-13.3-29.4-19.9-48.2-19.9h-46.1c-32.2,0-54.2,5.6-66.1,16.8c-2.1,2.1-3.1,3.8-3.1,5.2v32.5c44.7,0.7,74.1,8,88.1,22 c14,14,21,44.7,21,92.3c0,4.9-1.6,8.9-4.7,12.1c-3.1,3.1-6.8,4.7-11,4.7H230.1z M387.9,141c-9.4-0.7-30.2-1-62.4-1 s-53.1,3.1-62.9,9.4s-15,25.2-15.7,56.6h184.6c0-17.5-0.9-30.2-2.6-38.3c-1.7-8-6.6-14.3-14.7-18.9 C406.1,144.3,397.4,141.7,387.9,141z M230.1,289.9c0-4.2,1.2-7.5,3.7-10c2.4-2.4,5.6-3.7,9.4-3.7s7.2,1.2,10,3.7 c2.8,2.4,4.2,5.8,4.2,10v22c0,4.2-1.4,7.5-4.2,10c-2.8,2.4-5.8,3.7-8.9,3.7s-5.8-0.3-7.9-1c-4.2-2.8-6.3-7-6.3-12.6V289.9z M326.6,289.9c0-4.2,1.4-7.5,4.2-10c2.8-2.4,5.9-3.7,9.4-3.7c3.5,0,6.6,1.2,9.4,3.7c2.8,2.4,4.2,5.8,4.2,10v22 c0,4.2-1.4,7.5-4.2,10c-2.8,2.4-5.9,3.7-9.4,3.7c-3.5,0-6.6-1.2-9.4-3.7c-2.8-2.4-4.2-5.8-4.2-10V289.9z M412.6,289.9 c0-4.2,1.2-7.5,3.7-10c2.4-2.4,5.6-3.7,9.4-3.7c3.8,0,7.2,1.2,10,3.7c2.8,2.4,4.2,5.8,4.2,10v22c0,5.6-1.7,9.3-5.2,11 c-3.5,1.7-6.8,2.6-10,2.6c-3.1,0-5.9-1.2-8.4-3.7c-2.4-2.4-3.7-5.8-3.7-10V289.9z M273.1,380.1c0-3.5,1.2-6.6,3.7-9.4 c2.4-2.8,5.6-4.2,9.4-4.2s7.2,1.4,10,4.2c2.8,2.8,4.2,5.9,4.2,9.4v22c0,4.2-1.4,7.7-4.2,10.5c-2.8,2.8-6.1,4.2-10,4.2 s-7-1.4-9.4-4.2c-2.4-2.8-3.7-6.3-3.7-10.5V380.1z M369.6,380.1c0-3.5,1.2-6.6,3.7-9.4c2.4-2.8,5.6-4.2,9.4-4.2 c3.8,0,7.2,1.4,10,4.2c2.8,2.8,4.2,5.9,4.2,9.4v22c0,5.6-1.7,9.4-5.2,11.5c-3.5,2.1-6.8,3.1-10,3.1c-3.1,0-5.9-1.4-8.4-4.2 c-2.4-2.8-3.7-6.3-3.7-10.5V380.1z M730.3,497.5c14.7,0,26.6,5.9,35.7,17.8c5.6,7.7,8.4,17,8.4,27.8s-4.2,20.6-12.6,29.4 s-18.9,13.1-31.5,13.1h-11.5l-5.2,11.5c-9.8,21.7-19.6,43-29.4,64l-19.9,44c-4.9,10.5-12.2,19.9-22,28.3l25.2,13.6 c5.6,3.5,8.4,8,8.4,13.6c0,5.6-1.6,10.1-4.7,13.6c-3.1,3.5-6.6,5.2-10.5,5.2c-3.8,0-7.2-0.7-10-2.1l-45.1-24.1h-1 c-7,1.4-13.3,2.1-18.9,2.1H225.9c-9.8,0-20.3-2.1-31.5-6.3c-1.4,2.1-3.1,3.5-5.2,4.2l-45.1,24.1c-7.7,4.2-13.8,3.8-18.4-1 c-4.5-4.9-6.8-10.1-6.8-15.7c0-5.6,3.1-10.1,9.4-13.6l35.7-18.9c-7.7-7-13.3-14.7-16.8-23.1l-18.9-38.8L99,603.4l-8.4-17.8h-21 c-11.9,0-22.2-4.4-30.9-13.1S25.6,553.3,25.6,541c0-12.2,4.4-22.5,13.1-30.9c8.7-8.4,19-12.6,30.9-12.6H730.3z M653.8,647.5 c10.5-23.8,19.6-44.4,27.3-61.9H129.5l49.3,105.9c3.5,7.7,10,14.7,19.4,21c9.4,6.3,18.7,9.4,27.8,9.4h359.7 c9.1,0,18.4-3.1,27.8-9.4c9.4-6.3,15.9-13.3,19.4-21L653.8,647.5z M730.3,551c6.3-0.7,9.4-4,9.4-10s-3.1-8.9-9.4-8.9H69.7 c-6.3,0-9.4,3-9.4,8.9s3.1,9.3,9.4,10H730.3z"></path> </g> </svg> 