<?xml version="1.0" encoding="UTF-8"?> <!-- Generator: Adobe Illustrator 25.4.1, SVG Export Plug-In . SVG Version: 6.00 Build 0) --> <svg xmlns="http://www.w3.org/2000/svg" xmlns:xlink="http://www.w3.org/1999/xlink" version="1.1" id="Capa_1" x="0px" y="0px" viewBox="0 0 800 800" style="enable-background:new 0 0 800 800;" xml:space="preserve"> <g> <g> <path d="M385.2,569.4c-4.2-4.4-8.2-8.3-10.3-10.5c-3.2-3.3-3.3-4.3-3.3-9.3c0-74.6,0.3-373.2,0.2-447.7 c-0.1-38.2-23.5-69.3-59.2-79.1c-3.9-1.1-8-1.9-11.9-2.8h-18.3c-0.4,0.2-0.9,0.7-1.4,0.8c-35.3,3.8-70.4,35.9-69.9,84.6 c1,79.2,0.2,366.6,0.3,445.8c0,3.5-1,5.8-3.6,8.2c-5.5,4.8-10.5,10.2-15.1,15.9c-27.5,34.6-34.4,82.2-18.8,123.4 c17,44.9,58.9,76.1,106.3,80.7c2.4,0.2,4.9,0.4,7.3,0.5c55.8,2.2,102.9-31.8,122.1-83.4C426.9,649.9,419.5,606.1,385.2,569.4z M331.8,746.7c-5.4,2.6-11.4,4.7-17.8,6c-6.8,1.4-13.6,2-20.4,1.9c-0.4,0-0.9,0-1.3,0c-56.6,0-102.6-45.9-102.6-102.6 c0-33.2,15.8-62.6,40.1-81.4c0.1-0.1,0.2-0.2,0.3-0.3c2.4-2.1,3.6-6.6,3.7-10c0.5-18,0.9-328.5,0.9-346.4c0-65-0.3-45.7-0.3-110.7 c0-26.3,13.8-47.5,36.6-56.3c37.4-14.5,77.5,12.4,78.2,52.7c0.3,20.7,0,41.3,0,62v62.1h0.1c0,39.7,0,287.6,0,327.4 c0,2.7,0.1,5.4,0.1,8.1c0,4.1,1.1,7.2,3.2,10.1c25.6,18.6,42.3,48.8,42.3,82.9C394.9,694.7,368.8,731.3,331.8,746.7z"></path> <path d="M326.3,234.1c0,44.3,0.1,297-0.1,341.4c0,4.2,1.1,6.2,4.9,8.2c32.4,17.5,47.6,53.7,38.2,89.9 c-9.6,37.1-40.2,60.8-78.3,60.4c-37.8-0.3-67.7-24.2-77-61.4c-9.1-36.1,6.4-71.7,39.3-89.3c3.8-2.1,4.2-4.5,4.2-8.1 c0-88-0.1-384.3,0-472.4c0-18.4,9.9-31.6,26.5-35.8c18.4-4.7,40.5,9.2,41.1,27c0.2,9.6,1.4,19.4,1.5,29c0.3,18.5,0.1,37,0.2,55.5 c0,18.5,0,37,0,55.5C326.5,234.1,326.4,234.1,326.3,234.1z M280.3,374.3c0,2.7,0,4.8,0,7c0,47.4,0,155.9,0,203.3 c0,10-1.6,12.4-10.8,16.2c-23.4,9.5-36.7,31.1-34.7,56.3c2.1,26.5,18.7,46.6,43.4,52.4c29.8,7,58.6-9.1,67.8-37.8 c9.6-30.4-3.9-59.8-33-71.6c-7.9-3.2-9.9-6-9.9-14.7c0-48,0-157,0-205c0-2.1,0-4.2,0-6.4C295.2,374.3,288.1,374.3,280.3,374.3z M303,351c0.1-2,0.2-3.6,0.2-5.1c0-31.8,0-210.7,0-242.4c0-1.4,0-2.8-0.1-4.3c-0.5-5-3.5-8.2-8.2-9.5c-4.8-1.4-9.2,0-11.8,4.1 c-1.6,2.5-2.5,6-2.5,9c-0.2,32.3-0.1,211.8-0.1,244.1c0,1.4,0.2,2.7,0.3,4.4C288.1,351,295.1,351,303,351z"></path> </g> <path d="M443.7,152.4c-8.5,0-12-3.8-12-13.1c0-3.2,1.2-5.9,3.6-8.4c2.5-2.5,5.5-4.2,8.8-4.7h176.7c4.1,0.7,7.2,2.2,9.9,4.7 c2.4,2.4,3.6,5.4,3.6,9s-1.2,6.5-3.6,9c-2.4,2.4-5.6,3.6-9.5,3.6H443.7z"></path> <path d="M443.8,277.3c-8.5-0.7-12.2-4.6-12.2-13.1c0-3.3,1.2-6.2,3.8-9.1c2.4-2.7,5.1-4.1,8.2-4.1H621c9.3,0.7,13.2,4.6,13.2,13.1 c0,6.6-2.5,8.8-4.4,9.9c-4.6,2.6-7.3,3.3-8.8,3.3H443.8z"></path> <path d="M443.8,402.1c-8.5-0.7-12.2-4.6-12.2-13.1c0-3.9,1.2-7,3.6-9.5c2.4-2.4,5.1-3.6,8.4-3.6h177.4c3.9,0,7,1.2,9.5,3.6 c2.4,2.4,3.6,5.4,3.6,9c0,3.6-1.2,6.8-3.8,9.6c-2.4,2.7-5.5,4.1-9.3,4.1H443.8z"></path> <path d="M443.7,525.8c-3.2,0-5.9-1.2-8.4-3.6c-2.4-2.4-3.6-5.4-3.6-9c0-3.6,1.2-6.5,3.6-9c2.5-2.5,5.5-4.2,8.8-4.7h176.7 c4.1,0.7,7.2,2.2,9.9,4.7c2.4,2.4,3.6,5.4,3.6,9c0,3.6-1.2,6.5-3.6,9c-2.4,2.4-5.6,3.6-9.5,3.6H443.7z"></path> </g> </svg> 