<svg version="1.1" xmlns="http://www.w3.org/2000/svg" viewBox="0 0 20 20">
<path fill-rule="evenodd" fill="#fff" d=" M 5.978 2.372 L 7.078 1.972 L 13.243 18.911 L 12.143 19.312 L 5.978 2.372 Z  M 8.88 4.5 L 18 4.5 L 18 4.5 L 18 4.5 C 18.575 4.5 19 4.925 19 5.5 L 19 5.5 L 19 15.531 C 19 16.106 18.575 16.531 18 16.531 L 18 16.531 L 13.259 16.531 L 8.88 4.5 Z  M 6.752 4.5 L 2 4.5 C 1.425 4.5 1 4.925 1 5.5 L 1 5.5 L 1 15.531 C 1 16.106 1.425 16.531 2 16.531 L 2 16.531 L 7 16.531 C 8.377 16.531 9.754 16.531 11.131 16.531 L 11.131 16.531 L 6.752 4.5 Z  M 5.5 13.516 C 1.587 13.516 1.587 7.516 5.5 7.516 C 9.413 7.516 9.413 13.516 5.5 13.516 L 5.5 13.516 L 5.5 13.516 L 5.5 13.516 Z  M 14.5 13.516 C 10.587 13.516 10.587 7.516 14.5 7.516 C 18.413 7.516 18.413 13.516 14.5 13.516 L 14.5 13.516 L 14.5 13.516 Z "/>
</svg>