<svg version="1.1" xmlns="http://www.w3.org/2000/svg" viewBox="0 0 20 20">
<path fill-rule="evenodd" fill="#fff" d=" M 5.5 13.516 C 3.843 13.516 2.5 12.172 2.5 10.516 C 2.5 8.859 3.843 7.516 5.5 7.516 C 7.157 7.516 8.5 8.859 8.5 10.516 C 8.5 12.172 7.157 13.516 5.5 13.516 L 5.5 13.516 Z  M 18 4.5 L 2 4.5 C 1.45 4.5 1 4.95 1 5.5 L 1 15.531 C 1 16.081 1.45 16.531 2 16.531 L 7 16.531 C 7.55 16.531 12.45 16.531 13 16.531 L 18 16.531 C 18.55 16.531 19 16.081 19 15.531 L 19 5.5 C 19 4.95 18.55 4.5 18 4.5 L 18 4.5 Z  M 14.5 13.516 C 12.843 13.516 11.5 12.172 11.5 10.516 C 11.5 8.859 12.843 7.516 14.5 7.516 C 16.157 7.516 17.5 8.859 17.5 10.516 C 17.5 12.172 16.157 13.516 14.5 13.516 Z "/>
</svg>